<?xml version="1.0" encoding="UTF-8" standalone="no"?><svg xmlns="http://www.w3.org/2000/svg" xmlns:xlink="http://www.w3.org/1999/xlink" contentScriptType="application/ecmascript" contentStyleType="text/css" height="554px" preserveAspectRatio="none" style="width:777px;height:554px;background:#FFFFFF;" version="1.1" viewBox="0 0 777 554" width="777px" zoomAndPan="magnify"><defs><filter height="300%" id="ffa8isgbwheg5" width="300%" x="-1" y="-1"><feGaussianBlur result="blurOut" stdDeviation="2.0"/><feColorMatrix in="blurOut" result="blurOut2" type="matrix" values="0 0 0 0 0 0 0 0 0 0 0 0 0 0 0 0 0 0 .4 0"/><feOffset dx="4.0" dy="4.0" in="blurOut2" result="blurOut3"/><feBlend in="SourceGraphic" in2="blurOut3" mode="normal"/></filter></defs><g><rect fill="#FFA500" filter="url(#ffa8isgbwheg5)" height="39.1201" rx="12.5" ry="12.5" style="stroke:#A80036;stroke-width:1.5;" width="118" x="332" y="256.4805"/><text fill="#000000" font-family="sans-serif" font-size="14" lengthAdjust="spacing" textLength="98" x="342" y="282.5244">二维码课堂互动</text><rect fill="#ADD8E6" filter="url(#ffa8isgbwheg5)" height="39.1201" rx="12.5" ry="12.5" style="stroke:#A80036;stroke-width:1.5;" width="104" x="500" y="49.5601"/><text fill="#000000" font-family="sans-serif" font-size="14" lengthAdjust="spacing" textLength="84" x="510" y="75.604">用户信息模块</text><rect fill="#FEFECE" filter="url(#ffa8isgbwheg5)" height="39.1201" rx="12.5" ry="12.5" style="stroke:#A80036;stroke-width:1.5;" width="48" x="654" y="20"/><text fill="#000000" font-family="sans-serif" font-size="14" lengthAdjust="spacing" textLength="28" x="664" y="46.0439">登录</text><path d="M604,69.1201 L614,69.1201 C629,69.1201 629,39.5601 644,39.5601 L654,39.5601 " fill="none" style="stroke:#A80036;stroke-width:1.0;"/><rect fill="#FEFECE" filter="url(#ffa8isgbwheg5)" height="39.1201" rx="12.5" ry="12.5" style="stroke:#A80036;stroke-width:1.5;" width="76" x="654" y="79.1201"/><text fill="#000000" font-family="sans-serif" font-size="14" lengthAdjust="spacing" textLength="56" x="664" y="105.1641">修改密码</text><path d="M604,69.1201 L614,69.1201 C629,69.1201 629,98.6802 644,98.6802 L654,98.6802 " fill="none" style="stroke:#A80036;stroke-width:1.0;"/><path d="M450,276.0405 L460,276.0405 C475,276.0405 475,69.1201 490,69.1201 L500,69.1201 " fill="none" style="stroke:#A80036;stroke-width:1.0;"/><rect fill="#ADD8E6" filter="url(#ffa8isgbwheg5)" height="39.1201" rx="12.5" ry="12.5" style="stroke:#A80036;stroke-width:1.5;" width="104" x="500" y="138.2402"/><text fill="#000000" font-family="sans-serif" font-size="14" lengthAdjust="spacing" textLength="84" x="510" y="164.2842">课程管理模块</text><rect fill="#FEFECE" filter="url(#ffa8isgbwheg5)" height="39.1201" rx="12.5" ry="12.5" style="stroke:#A80036;stroke-width:1.5;" width="104" x="654" y="138.2402"/><text fill="#000000" font-family="sans-serif" font-size="14" lengthAdjust="spacing" textLength="84" x="664" y="164.2842">课程所属用户</text><path d="M604,157.8003 L614,157.8003 C629,157.8003 629,157.8003 644,157.8003 L654,157.8003 " fill="none" style="stroke:#A80036;stroke-width:1.0;"/><path d="M450,276.0405 L460,276.0405 C475,276.0405 475,157.8003 490,157.8003 L500,157.8003 " fill="none" style="stroke:#A80036;stroke-width:1.0;"/><rect fill="#ADD8E6" filter="url(#ffa8isgbwheg5)" height="39.1201" rx="12.5" ry="12.5" style="stroke:#A80036;stroke-width:1.5;" width="104" x="500" y="256.4805"/><text fill="#000000" font-family="sans-serif" font-size="14" lengthAdjust="spacing" textLength="84" x="510" y="282.5244">试卷管理模块</text><rect fill="#FEFECE" filter="url(#ffa8isgbwheg5)" height="39.1201" rx="12.5" ry="12.5" style="stroke:#A80036;stroke-width:1.5;" width="76" x="654" y="197.3604"/><text fill="#000000" font-family="sans-serif" font-size="14" lengthAdjust="spacing" textLength="56" x="664" y="223.4043">试卷添加</text><path d="M604,276.0405 L614,276.0405 C629,276.0405 629,216.9204 644,216.9204 L654,216.9204 " fill="none" style="stroke:#A80036;stroke-width:1.0;"/><rect fill="#FEFECE" filter="url(#ffa8isgbwheg5)" height="39.1201" rx="12.5" ry="12.5" style="stroke:#A80036;stroke-width:1.5;" width="76" x="654" y="256.4805"/><text fill="#000000" font-family="sans-serif" font-size="14" lengthAdjust="spacing" textLength="56" x="664" y="282.5244">试卷删除</text><path d="M604,276.0405 L614,276.0405 C629,276.0405 629,276.0405 644,276.0405 L654,276.0405 " fill="none" style="stroke:#A80036;stroke-width:1.0;"/><rect fill="#FEFECE" filter="url(#ffa8isgbwheg5)" height="39.1201" rx="12.5" ry="12.5" style="stroke:#A80036;stroke-width:1.5;" width="76" x="654" y="315.6006"/><text fill="#000000" font-family="sans-serif" font-size="14" lengthAdjust="spacing" textLength="56" x="664" y="341.6445">分数统计</text><path d="M604,276.0405 L614,276.0405 C629,276.0405 629,335.1606 644,335.1606 L654,335.1606 " fill="none" style="stroke:#A80036;stroke-width:1.0;"/><path d="M450,276.0405 L460,276.0405 C475,276.0405 475,276.0405 490,276.0405 L500,276.0405 " fill="none" style="stroke:#A80036;stroke-width:1.0;"/><rect fill="#ADD8E6" filter="url(#ffa8isgbwheg5)" height="39.1201" rx="12.5" ry="12.5" style="stroke:#A80036;stroke-width:1.5;" width="104" x="500" y="433.8408"/><text fill="#000000" font-family="sans-serif" font-size="14" lengthAdjust="spacing" textLength="84" x="510" y="459.8848">题目管理模块</text><rect fill="#FEFECE" filter="url(#ffa8isgbwheg5)" height="39.1201" rx="12.5" ry="12.5" style="stroke:#A80036;stroke-width:1.5;" width="76" x="654" y="374.7207"/><text fill="#000000" font-family="sans-serif" font-size="14" lengthAdjust="spacing" textLength="56" x="664" y="400.7646">题目添加</text><path d="M604,453.4009 L614,453.4009 C629,453.4009 629,394.2808 644,394.2808 L654,394.2808 " fill="none" style="stroke:#A80036;stroke-width:1.0;"/><rect fill="#FEFECE" filter="url(#ffa8isgbwheg5)" height="39.1201" rx="12.5" ry="12.5" style="stroke:#A80036;stroke-width:1.5;" width="76" x="654" y="433.8408"/><text fill="#000000" font-family="sans-serif" font-size="14" lengthAdjust="spacing" textLength="56" x="664" y="459.8848">题目删除</text><path d="M604,453.4009 L614,453.4009 C629,453.4009 629,453.4009 644,453.4009 L654,453.4009 " fill="none" style="stroke:#A80036;stroke-width:1.0;"/><rect fill="#FEFECE" filter="url(#ffa8isgbwheg5)" height="39.1201" rx="12.5" ry="12.5" style="stroke:#A80036;stroke-width:1.5;" width="76" x="654" y="492.9609"/><text fill="#000000" font-family="sans-serif" font-size="14" lengthAdjust="spacing" textLength="56" x="664" y="519.0049">答案统计</text><path d="M604,453.4009 L614,453.4009 C629,453.4009 629,512.521 644,512.521 L654,512.521 " fill="none" style="stroke:#A80036;stroke-width:1.0;"/><path d="M450,276.0405 L460,276.0405 C475,276.0405 475,453.4009 490,453.4009 L500,453.4009 " fill="none" style="stroke:#A80036;stroke-width:1.0;"/><rect fill="#ADD8E6" filter="url(#ffa8isgbwheg5)" height="39.1201" rx="12.5" ry="12.5" style="stroke:#A80036;stroke-width:1.5;" width="118" x="164" y="256.4805"/><text fill="#000000" font-family="sans-serif" font-size="14" lengthAdjust="spacing" textLength="98" x="174" y="282.5244">结果可视化模块</text><rect fill="#FEFECE" filter="url(#ffa8isgbwheg5)" height="39.1201" rx="12.5" ry="12.5" style="stroke:#A80036;stroke-width:1.5;" width="104" x="10" y="226.9204"/><text fill="#000000" font-family="sans-serif" font-size="14" lengthAdjust="spacing" textLength="84" x="20" y="252.9644">选项分布统计</text><path d="M164,276.0405 L154,276.0405 C139,276.0405 139,246.4805 124,246.4805 L114,246.4805 " fill="none" style="stroke:#A80036;stroke-width:1.0;"/><rect fill="#FEFECE" filter="url(#ffa8isgbwheg5)" height="39.1201" rx="12.5" ry="12.5" style="stroke:#A80036;stroke-width:1.5;" width="104" x="10" y="286.0405"/><text fill="#000000" font-family="sans-serif" font-size="14" lengthAdjust="spacing" textLength="84" x="20" y="312.0845">试卷分数统计</text><path d="M164,276.0405 L154,276.0405 C139,276.0405 139,305.6006 124,305.6006 L114,305.6006 " fill="none" style="stroke:#A80036;stroke-width:1.0;"/><path d="M332,276.0405 L322,276.0405 C307,276.0405 307,276.0405 292,276.0405 L282,276.0405 " fill="none" style="stroke:#A80036;stroke-width:1.0;"/><!--MD5=[9da86ee9bd726ae3f1e5632f710209e1]
@startmindmap
+[#Orange] 二维码课堂互动

++[#LightBlue] 用户信息模块
+++ 登录
+++ 修改密码

++[#LightBlue] 课程管理模块
+++ 课程所属用户

++[#LightBlue] 试卷管理模块
+++ 试卷添加
+++ 试卷删除
+++ 分数统计

++[#LightBlue] 题目管理模块
+++ 题目添加
+++ 题目删除
+++ 答案统计

- -[#LightBlue] 结果可视化模块
- - - 选项分布统计
- - - 试卷分数统计
@endmindmap

PlantUML version 1.2022.0(Wed Jan 12 00:16:42 CST 2022)
(GPL source distribution)
Java Runtime: OpenJDK Runtime Environment
JVM: OpenJDK 64-Bit Server VM
Default Encoding: GBK
Language: zh
Country: CN
--></g></svg>