<?xml version="1.0" encoding="UTF-8" standalone="no"?><svg xmlns="http://www.w3.org/2000/svg" xmlns:xlink="http://www.w3.org/1999/xlink" contentScriptType="application/ecmascript" contentStyleType="text/css" height="549px" preserveAspectRatio="none" style="width:1421px;height:549px;background:#FFFFFF;" version="1.1" viewBox="0 0 1421 549" width="1421px" zoomAndPan="magnify"><defs><filter height="300%" id="f7h7i8ntbj764" width="300%" x="-1" y="-1"><feGaussianBlur result="blurOut" stdDeviation="2.0"/><feColorMatrix in="blurOut" result="blurOut2" type="matrix" values="0 0 0 0 0 0 0 0 0 0 0 0 0 0 0 0 0 0 .4 0"/><feOffset dx="4.0" dy="4.0" in="blurOut2" result="blurOut3"/><feBlend in="SourceGraphic" in2="blurOut3" mode="normal"/></filter></defs><g><!--MD5=[d0da0a299942266ebd64acf2b2e95fa4]
class Subject--><rect codeLine="2" fill="#FEFECE" filter="url(#f7h7i8ntbj764)" height="112.0234" id="Subject" style="stroke:#A80036;stroke-width:1.5;" width="132" x="500" y="104.5"/><ellipse cx="538.85" cy="120.5" fill="#ADD1B2" rx="11" ry="11" style="stroke:#A80036;stroke-width:1.0;"/><path d="M542.9594,126.5 L535.2406,126.5 L535.2406,114.1094 L542.9594,114.1094 L542.9594,116.2656 L537.6938,116.2656 L537.6938,118.9375 L542.4594,118.9375 L542.4594,121.0938 L537.6938,121.0938 L537.6938,124.3438 L542.9594,124.3438 L542.9594,126.5 Z " fill="#000000"/><text fill="#000000" font-family="sans-serif" font-size="12" lengthAdjust="spacing" textLength="47" x="558.15" y="124.6543">Subject</text><line style="stroke:#A80036;stroke-width:1.5;" x1="501" x2="631" y1="136.5" y2="136.5"/><text fill="#000000" font-family="sans-serif" font-size="11" lengthAdjust="spacing" textLength="70" x="506" y="150.7104">id : INTEGER</text><line style="stroke:#A80036;stroke-width:1.0;stroke-dasharray:1.0,2.0;" x1="501" x2="631" y1="157.3047" y2="157.3047"/><text fill="#000000" font-family="sans-serif" font-size="11" lengthAdjust="spacing" textLength="86" x="506" y="171.5151">name : STRING</text><text fill="#000000" font-family="sans-serif" font-size="11" lengthAdjust="spacing" textLength="119" x="506" y="184.3198">teacher_id : INTEGER</text><text fill="#000000" font-family="sans-serif" font-size="11" lengthAdjust="spacing" textLength="120" x="506" y="197.1245">classes_id : INTEGER</text><text fill="#000000" font-family="sans-serif" font-size="11" lengthAdjust="spacing" textLength="119" x="506" y="209.9292">chapter_id : INTEGER</text><!--MD5=[e6dd12c3d7efc01d6b31087039459188]
class Chapter--><rect codeLine="12" fill="#FEFECE" filter="url(#f7h7i8ntbj764)" height="112.0234" id="Chapter" style="stroke:#A80036;stroke-width:1.5;" width="152" x="750" y="16.5"/><ellipse cx="796.75" cy="32.5" fill="#ADD1B2" rx="11" ry="11" style="stroke:#A80036;stroke-width:1.0;"/><path d="M800.8594,38.5 L793.1406,38.5 L793.1406,26.1094 L800.8594,26.1094 L800.8594,28.2656 L795.5938,28.2656 L795.5938,30.9375 L800.3594,30.9375 L800.3594,33.0938 L795.5938,33.0938 L795.5938,36.3438 L800.8594,36.3438 L800.8594,38.5 Z " fill="#000000"/><text fill="#000000" font-family="sans-serif" font-size="12" lengthAdjust="spacing" textLength="50" x="817.25" y="36.6543">Chapter</text><line style="stroke:#A80036;stroke-width:1.5;" x1="751" x2="901" y1="48.5" y2="48.5"/><text fill="#000000" font-family="sans-serif" font-size="11" lengthAdjust="spacing" textLength="70" x="756" y="62.7104">id : INTEGER</text><line style="stroke:#A80036;stroke-width:1.0;stroke-dasharray:1.0,2.0;" x1="751" x2="901" y1="69.3047" y2="69.3047"/><text fill="#000000" font-family="sans-serif" font-size="11" lengthAdjust="spacing" textLength="86" x="756" y="83.5151">name : STRING</text><text fill="#000000" font-family="sans-serif" font-size="11" lengthAdjust="spacing" textLength="117" x="756" y="96.3198">subject_id : INTEGER</text><text fill="#000000" font-family="sans-serif" font-size="11" lengthAdjust="spacing" textLength="140" x="756" y="109.1245">examPaper_id : INTEGER</text><text fill="#000000" font-family="sans-serif" font-size="11" lengthAdjust="spacing" textLength="125" x="756" y="121.9292">question_id : INTEGER</text><!--MD5=[831d89f7ed19e8d9dcbc545e8c99870c]
class ExamPaper--><rect codeLine="22" fill="#FEFECE" filter="url(#f7h7i8ntbj764)" height="137.6328" id="ExamPaper" style="stroke:#A80036;stroke-width:1.5;" width="137" x="757.5" y="163.5"/><ellipse cx="788.25" cy="179.5" fill="#ADD1B2" rx="11" ry="11" style="stroke:#A80036;stroke-width:1.0;"/><path d="M792.3594,185.5 L784.6406,185.5 L784.6406,173.1094 L792.3594,173.1094 L792.3594,175.2656 L787.0938,175.2656 L787.0938,177.9375 L791.8594,177.9375 L791.8594,180.0938 L787.0938,180.0938 L787.0938,183.3438 L792.3594,183.3438 L792.3594,185.5 Z " fill="#000000"/><text fill="#000000" font-family="sans-serif" font-size="12" lengthAdjust="spacing" textLength="70" x="805.75" y="183.6543">ExamPaper</text><line style="stroke:#A80036;stroke-width:1.5;" x1="758.5" x2="893.5" y1="195.5" y2="195.5"/><text fill="#000000" font-family="sans-serif" font-size="11" lengthAdjust="spacing" textLength="70" x="763.5" y="209.7104">id : INTEGER</text><line style="stroke:#A80036;stroke-width:1.0;" x1="758.5" x2="893.5" y1="216.3047" y2="216.3047"/><text fill="#000000" font-family="sans-serif" font-size="11" lengthAdjust="spacing" textLength="86" x="763.5" y="230.5151">name : STRING</text><text fill="#000000" font-family="sans-serif" font-size="11" lengthAdjust="spacing" textLength="72" x="763.5" y="243.3198">tag : STRING</text><text fill="#000000" font-family="sans-serif" font-size="11" lengthAdjust="spacing" textLength="119" x="763.5" y="256.1245">chapter_id : INTEGER</text><text fill="#000000" font-family="sans-serif" font-size="11" lengthAdjust="spacing" textLength="125" x="763.5" y="268.9292">question_id : INTEGER</text><text fill="#000000" font-family="sans-serif" font-size="11" lengthAdjust="spacing" textLength="109" x="763.5" y="281.7339">grade_id : INTEGER</text><text fill="#000000" font-family="sans-serif" font-size="11" lengthAdjust="spacing" textLength="120" x="763.5" y="294.5386">classes_id : INTEGER</text><!--MD5=[fc7123defb831ecdd44b2d9bcef6cceb]
class Question--><rect codeLine="34" fill="#FEFECE" filter="url(#f7h7i8ntbj764)" height="124.8281" id="Question" style="stroke:#A80036;stroke-width:1.5;" width="152" x="1017" y="93"/><ellipse cx="1060.8" cy="109" fill="#ADD1B2" rx="11" ry="11" style="stroke:#A80036;stroke-width:1.0;"/><path d="M1064.9094,115 L1057.1906,115 L1057.1906,102.6094 L1064.9094,102.6094 L1064.9094,104.7656 L1059.6438,104.7656 L1059.6438,107.4375 L1064.4094,107.4375 L1064.4094,109.5938 L1059.6438,109.5938 L1059.6438,112.8438 L1064.9094,112.8438 L1064.9094,115 Z " fill="#000000"/><text fill="#000000" font-family="sans-serif" font-size="12" lengthAdjust="spacing" textLength="56" x="1081.2" y="113.1543">Question</text><line style="stroke:#A80036;stroke-width:1.5;" x1="1018" x2="1168" y1="125" y2="125"/><text fill="#000000" font-family="sans-serif" font-size="11" lengthAdjust="spacing" textLength="70" x="1023" y="139.2104">id : INTEGER</text><line style="stroke:#A80036;stroke-width:1.0;stroke-dasharray:1.0,2.0;" x1="1018" x2="1168" y1="145.8047" y2="145.8047"/><text fill="#000000" font-family="sans-serif" font-size="11" lengthAdjust="spacing" textLength="127" x="1023" y="160.0151">questionText : STRING</text><text fill="#000000" font-family="sans-serif" font-size="11" lengthAdjust="spacing" textLength="94" x="1023" y="172.8198">difficulty : FLOAT</text><text fill="#000000" font-family="sans-serif" font-size="11" lengthAdjust="spacing" textLength="78" x="1023" y="185.6245">type : STRING</text><text fill="#000000" font-family="sans-serif" font-size="11" lengthAdjust="spacing" textLength="140" x="1023" y="198.4292">examPaper_id : INTEGER</text><text fill="#000000" font-family="sans-serif" font-size="11" lengthAdjust="spacing" textLength="119" x="1023" y="211.2339">chapter_id : INTEGER</text><!--MD5=[17395793c30896c425127a7a9c9c9792]
class MutipleChoice--><rect codeLine="44" fill="#FEFECE" filter="url(#f7h7i8ntbj764)" height="137.6328" id="MutipleChoice" style="stroke:#A80036;stroke-width:1.5;" width="131" x="1276" y="13.5"/><ellipse cx="1296.4" cy="29.5" fill="#ADD1B2" rx="11" ry="11" style="stroke:#A80036;stroke-width:1.0;"/><path d="M1300.5094,35.5 L1292.7906,35.5 L1292.7906,23.1094 L1300.5094,23.1094 L1300.5094,25.2656 L1295.2438,25.2656 L1295.2438,27.9375 L1300.0094,27.9375 L1300.0094,30.0938 L1295.2438,30.0938 L1295.2438,33.3438 L1300.5094,33.3438 L1300.5094,35.5 Z " fill="#000000"/><text fill="#000000" font-family="sans-serif" font-size="12" lengthAdjust="spacing" textLength="87" x="1311.6" y="33.6543">MutipleChoice</text><line style="stroke:#A80036;stroke-width:1.5;" x1="1277" x2="1406" y1="45.5" y2="45.5"/><text fill="#000000" font-family="sans-serif" font-size="11" lengthAdjust="spacing" textLength="70" x="1282" y="59.7104">id : INTEGER</text><line style="stroke:#A80036;stroke-width:1.0;stroke-dasharray:1.0,2.0;" x1="1277" x2="1406" y1="66.3047" y2="66.3047"/><text fill="#000000" font-family="sans-serif" font-size="11" lengthAdjust="spacing" textLength="97" x="1282" y="80.5151">choice1 : STRING</text><text fill="#000000" font-family="sans-serif" font-size="11" lengthAdjust="spacing" textLength="97" x="1282" y="93.3198">choice2 : STRING</text><text fill="#000000" font-family="sans-serif" font-size="11" lengthAdjust="spacing" textLength="97" x="1282" y="106.1245">choice3 : STRING</text><text fill="#000000" font-family="sans-serif" font-size="11" lengthAdjust="spacing" textLength="97" x="1282" y="118.9292">choice4 : STRING</text><text fill="#000000" font-family="sans-serif" font-size="11" lengthAdjust="spacing" textLength="96" x="1282" y="131.7339">answer : STRING</text><text fill="#000000" font-family="sans-serif" font-size="11" lengthAdjust="spacing" textLength="119" x="1282" y="144.5386">questionId : INTEGER</text><!--MD5=[c087533bf00b8bbb24ce4fccf8f15d5d]
class FillInTheBlanks--><rect codeLine="55" fill="#FEFECE" filter="url(#f7h7i8ntbj764)" height="86.4141" id="FillInTheBlanks" style="stroke:#A80036;stroke-width:1.5;" width="131" x="1276" y="186.5"/><ellipse cx="1294.6" cy="202.5" fill="#ADD1B2" rx="11" ry="11" style="stroke:#A80036;stroke-width:1.0;"/><path d="M1298.7094,208.5 L1290.9906,208.5 L1290.9906,196.1094 L1298.7094,196.1094 L1298.7094,198.2656 L1293.4438,198.2656 L1293.4438,200.9375 L1298.2094,200.9375 L1298.2094,203.0938 L1293.4438,203.0938 L1293.4438,206.3438 L1298.7094,206.3438 L1298.7094,208.5 Z " fill="#000000"/><text fill="#000000" font-family="sans-serif" font-size="12" lengthAdjust="spacing" textLength="91" x="1309.4" y="206.6543">FillInTheBlanks</text><line style="stroke:#A80036;stroke-width:1.5;" x1="1277" x2="1406" y1="218.5" y2="218.5"/><text fill="#000000" font-family="sans-serif" font-size="11" lengthAdjust="spacing" textLength="70" x="1282" y="232.7104">id : INTEGER</text><line style="stroke:#A80036;stroke-width:1.0;stroke-dasharray:1.0,2.0;" x1="1277" x2="1406" y1="239.3047" y2="239.3047"/><text fill="#000000" font-family="sans-serif" font-size="11" lengthAdjust="spacing" textLength="96" x="1282" y="253.5151">answer : STRING</text><text fill="#000000" font-family="sans-serif" font-size="11" lengthAdjust="spacing" textLength="119" x="1282" y="266.3198">questionId : INTEGER</text><!--MD5=[a3638c1e5b65d287ecad7f06f5c0f212]
class Role--><rect codeLine="63" fill="#FEFECE" filter="url(#f7h7i8ntbj764)" height="99.2188" id="Role" style="stroke:#A80036;stroke-width:1.5;" width="152" x="7" y="167"/><ellipse cx="65.25" cy="183" fill="#ADD1B2" rx="11" ry="11" style="stroke:#A80036;stroke-width:1.0;"/><path d="M69.3594,189 L61.6406,189 L61.6406,176.6094 L69.3594,176.6094 L69.3594,178.7656 L64.0938,178.7656 L64.0938,181.4375 L68.8594,181.4375 L68.8594,183.5938 L64.0938,183.5938 L64.0938,186.8438 L69.3594,186.8438 L69.3594,189 Z " fill="#000000"/><text fill="#000000" font-family="sans-serif" font-size="12" lengthAdjust="spacing" textLength="27" x="85.75" y="187.1543">Role</text><line style="stroke:#A80036;stroke-width:1.5;" x1="8" x2="158" y1="199" y2="199"/><text fill="#000000" font-family="sans-serif" font-size="11" lengthAdjust="spacing" textLength="70" x="13" y="213.2104">id : INTEGER</text><line style="stroke:#A80036;stroke-width:1.0;stroke-dasharray:1.0,2.0;" x1="8" x2="158" y1="219.8047" y2="219.8047"/><text fill="#000000" font-family="sans-serif" font-size="11" lengthAdjust="spacing" textLength="86" x="13" y="234.0151">name : STRING</text><text fill="#000000" font-family="sans-serif" font-size="11" lengthAdjust="spacing" textLength="102" x="13" y="246.8198">user_id : INTEGER</text><text fill="#000000" font-family="sans-serif" font-size="11" lengthAdjust="spacing" textLength="140" x="13" y="259.6245">permission_id : INTEGER</text><!--MD5=[03da7ad6344b0b2c818a169ad3cc63fd]
class Permission--><rect codeLine="72" fill="#FEFECE" filter="url(#f7h7i8ntbj764)" height="86.4141" id="Permission" style="stroke:#A80036;stroke-width:1.5;" width="110" x="265" y="173.5"/><ellipse cx="284.5" cy="189.5" fill="#ADD1B2" rx="11" ry="11" style="stroke:#A80036;stroke-width:1.0;"/><path d="M288.6094,195.5 L280.8906,195.5 L280.8906,183.1094 L288.6094,183.1094 L288.6094,185.2656 L283.3438,185.2656 L283.3438,187.9375 L288.1094,187.9375 L288.1094,190.0938 L283.3438,190.0938 L283.3438,193.3438 L288.6094,193.3438 L288.6094,195.5 Z " fill="#000000"/><text fill="#000000" font-family="sans-serif" font-size="12" lengthAdjust="spacing" textLength="68" x="299.5" y="193.6543">Permission</text><line style="stroke:#A80036;stroke-width:1.5;" x1="266" x2="374" y1="205.5" y2="205.5"/><text fill="#000000" font-family="sans-serif" font-size="11" lengthAdjust="spacing" textLength="70" x="271" y="219.7104">id : INTEGER</text><line style="stroke:#A80036;stroke-width:1.0;stroke-dasharray:1.0,2.0;" x1="266" x2="374" y1="226.3047" y2="226.3047"/><text fill="#000000" font-family="sans-serif" font-size="11" lengthAdjust="spacing" textLength="86" x="271" y="240.5151">name : STRING</text><text fill="#000000" font-family="sans-serif" font-size="11" lengthAdjust="spacing" textLength="98" x="271" y="253.3198">role_id : INTEGER</text><!--MD5=[9e94af7e26ddd61f16675ec5a7d7b75f]
class UserInfo--><rect codeLine="80" fill="#FEFECE" filter="url(#f7h7i8ntbj764)" height="137.6328" id="UserInfo" style="stroke:#A80036;stroke-width:1.5;" width="131" x="17.5" y="317.5"/><ellipse cx="53.65" cy="333.5" fill="#ADD1B2" rx="11" ry="11" style="stroke:#A80036;stroke-width:1.0;"/><path d="M57.7594,339.5 L50.0406,339.5 L50.0406,327.1094 L57.7594,327.1094 L57.7594,329.2656 L52.4938,329.2656 L52.4938,331.9375 L57.2594,331.9375 L57.2594,334.0938 L52.4938,334.0938 L52.4938,337.3438 L57.7594,337.3438 L57.7594,339.5 Z " fill="#000000"/><text fill="#000000" font-family="sans-serif" font-size="12" lengthAdjust="spacing" textLength="52" x="72.35" y="337.6543">UserInfo</text><line style="stroke:#A80036;stroke-width:1.5;" x1="18.5" x2="147.5" y1="349.5" y2="349.5"/><text fill="#000000" font-family="sans-serif" font-size="11" lengthAdjust="spacing" textLength="70" x="23.5" y="363.7104">id : INTEGER</text><line style="stroke:#A80036;stroke-width:1.0;stroke-dasharray:1.0,2.0;" x1="18.5" x2="147.5" y1="370.3047" y2="370.3047"/><text fill="#000000" font-family="sans-serif" font-size="11" lengthAdjust="spacing" textLength="112" x="23.5" y="384.5151">username : STRING</text><text fill="#000000" font-family="sans-serif" font-size="11" lengthAdjust="spacing" textLength="110" x="23.5" y="397.3198">password : STRING</text><text fill="#000000" font-family="sans-serif" font-size="11" lengthAdjust="spacing" textLength="98" x="23.5" y="410.1245">role_id : INTEGER</text><text fill="#000000" font-family="sans-serif" font-size="11" lengthAdjust="spacing" textLength="119" x="23.5" y="422.9292">teacher_id : INTEGER</text><text fill="#000000" font-family="sans-serif" font-size="11" lengthAdjust="spacing" textLength="119" x="23.5" y="435.7339">student_id : INTEGER</text><text fill="#000000" font-family="sans-serif" font-size="11" lengthAdjust="spacing" textLength="0" x="27.5" y="448.5386"/><!--MD5=[61a83f88cb8b7d3a80bc8c481f3736bf]
class Teacher--><rect codeLine="91" fill="#FEFECE" filter="url(#f7h7i8ntbj764)" height="86.4141" id="Teacher" style="stroke:#A80036;stroke-width:1.5;" width="124" x="258" y="306.5"/><ellipse cx="291.45" cy="322.5" fill="#ADD1B2" rx="11" ry="11" style="stroke:#A80036;stroke-width:1.0;"/><path d="M295.5594,328.5 L287.8406,328.5 L287.8406,316.1094 L295.5594,316.1094 L295.5594,318.2656 L290.2938,318.2656 L290.2938,320.9375 L295.0594,320.9375 L295.0594,323.0938 L290.2938,323.0938 L290.2938,326.3438 L295.5594,326.3438 L295.5594,328.5 Z " fill="#000000"/><text fill="#000000" font-family="sans-serif" font-size="12" lengthAdjust="spacing" textLength="51" x="309.55" y="326.6543">Teacher</text><line style="stroke:#A80036;stroke-width:1.5;" x1="259" x2="381" y1="338.5" y2="338.5"/><text fill="#000000" font-family="sans-serif" font-size="11" lengthAdjust="spacing" textLength="70" x="264" y="352.7104">id : INTEGER</text><line style="stroke:#A80036;stroke-width:1.0;stroke-dasharray:1.0,2.0;" x1="259" x2="381" y1="359.3047" y2="359.3047"/><text fill="#000000" font-family="sans-serif" font-size="11" lengthAdjust="spacing" textLength="112" x="264" y="373.5151">username : STRING</text><text fill="#000000" font-family="sans-serif" font-size="11" lengthAdjust="spacing" textLength="110" x="264" y="386.3198">password : STRING</text><!--MD5=[4481f1f876aa056696029f7568a5ef18]
class Classes--><rect codeLine="99" fill="#FEFECE" filter="url(#f7h7i8ntbj764)" height="163.2422" id="Classes" style="stroke:#A80036;stroke-width:1.5;" width="170" x="481" y="268"/><ellipse cx="537.75" cy="284" fill="#ADD1B2" rx="11" ry="11" style="stroke:#A80036;stroke-width:1.0;"/><path d="M541.8594,290 L534.1406,290 L534.1406,277.6094 L541.8594,277.6094 L541.8594,279.7656 L536.5938,279.7656 L536.5938,282.4375 L541.3594,282.4375 L541.3594,284.5938 L536.5938,284.5938 L536.5938,287.8438 L541.8594,287.8438 L541.8594,290 Z " fill="#000000"/><text fill="#000000" font-family="sans-serif" font-size="12" lengthAdjust="spacing" textLength="48" x="558.25" y="288.1543">Classes</text><line style="stroke:#A80036;stroke-width:1.5;" x1="482" x2="650" y1="300" y2="300"/><text fill="#000000" font-family="sans-serif" font-size="11" lengthAdjust="spacing" textLength="70" x="487" y="314.2104">id : INTEGER</text><line style="stroke:#A80036;stroke-width:1.0;stroke-dasharray:1.0,2.0;" x1="482" x2="650" y1="320.8047" y2="320.8047"/><text fill="#000000" font-family="sans-serif" font-size="11" lengthAdjust="spacing" textLength="120" x="487" y="335.0151">classes_id : INTEGER</text><text fill="#000000" font-family="sans-serif" font-size="11" lengthAdjust="spacing" textLength="88" x="487" y="347.8198">terms : STRING</text><text fill="#000000" font-family="sans-serif" font-size="11" lengthAdjust="spacing" textLength="136" x="487" y="360.6245">studentCount : INTEGER</text><text fill="#000000" font-family="sans-serif" font-size="11" lengthAdjust="spacing" textLength="117" x="487" y="373.4292">subject_id : INTEGER</text><text fill="#000000" font-family="sans-serif" font-size="11" lengthAdjust="spacing" textLength="119" x="487" y="386.2339">teacher_id : INTEGER</text><text fill="#000000" font-family="sans-serif" font-size="11" lengthAdjust="spacing" textLength="158" x="487" y="399.0386">student_grade_id : INTEGER</text><text fill="#000000" font-family="sans-serif" font-size="11" lengthAdjust="spacing" textLength="119" x="487" y="411.8433">student_id : INTEGER</text><text fill="#000000" font-family="sans-serif" font-size="11" lengthAdjust="spacing" textLength="140" x="487" y="424.6479">examPaper_id : INTEGER</text><!--MD5=[d6181cb537bdc20c0a3007a98a56832d]
class Student--><rect codeLine="113" fill="#FEFECE" filter="url(#f7h7i8ntbj764)" height="112.0234" id="Student" style="stroke:#A80036;stroke-width:1.5;" width="132" x="760" y="423.5"/><ellipse cx="797.5" cy="439.5" fill="#ADD1B2" rx="11" ry="11" style="stroke:#A80036;stroke-width:1.0;"/><path d="M801.6094,445.5 L793.8906,445.5 L793.8906,433.1094 L801.6094,433.1094 L801.6094,435.2656 L796.3438,435.2656 L796.3438,437.9375 L801.1094,437.9375 L801.1094,440.0938 L796.3438,440.0938 L796.3438,443.3438 L801.6094,443.3438 L801.6094,445.5 Z " fill="#000000"/><text fill="#000000" font-family="sans-serif" font-size="12" lengthAdjust="spacing" textLength="50" x="816.5" y="443.6543">Student</text><line style="stroke:#A80036;stroke-width:1.5;" x1="761" x2="891" y1="455.5" y2="455.5"/><text fill="#000000" font-family="sans-serif" font-size="11" lengthAdjust="spacing" textLength="70" x="766" y="469.7104">id : INTEGER</text><line style="stroke:#A80036;stroke-width:1.0;stroke-dasharray:1.0,2.0;" x1="761" x2="891" y1="476.3047" y2="476.3047"/><text fill="#000000" font-family="sans-serif" font-size="11" lengthAdjust="spacing" textLength="119" x="766" y="490.5151">student_id : INTEGER</text><text fill="#000000" font-family="sans-serif" font-size="11" lengthAdjust="spacing" textLength="102" x="766" y="503.3198">user_id : INTEGER</text><text fill="#000000" font-family="sans-serif" font-size="11" lengthAdjust="spacing" textLength="93" x="766" y="516.1245">grade : INTEGER</text><text fill="#000000" font-family="sans-serif" font-size="11" lengthAdjust="spacing" textLength="120" x="766" y="528.9292">classes_id : INTEGER</text><!--MD5=[395cb84846dc072430de84a77d86ad3f]
class StudentGrade--><rect codeLine="123" fill="#FEFECE" filter="url(#f7h7i8ntbj764)" height="137.6328" id="StudentGrade" style="stroke:#A80036;stroke-width:1.5;" width="152" x="1017" y="284.5"/><ellipse cx="1046.4" cy="300.5" fill="#ADD1B2" rx="11" ry="11" style="stroke:#A80036;stroke-width:1.0;"/><path d="M1050.5094,306.5 L1042.7906,306.5 L1042.7906,294.1094 L1050.5094,294.1094 L1050.5094,296.2656 L1045.2438,296.2656 L1045.2438,298.9375 L1050.0094,298.9375 L1050.0094,301.0938 L1045.2438,301.0938 L1045.2438,304.3438 L1050.5094,304.3438 L1050.5094,306.5 Z " fill="#000000"/><text fill="#000000" font-family="sans-serif" font-size="12" lengthAdjust="spacing" textLength="88" x="1063.6" y="304.6543">StudentGrade</text><line style="stroke:#A80036;stroke-width:1.5;" x1="1018" x2="1168" y1="316.5" y2="316.5"/><text fill="#000000" font-family="sans-serif" font-size="11" lengthAdjust="spacing" textLength="70" x="1023" y="330.7104">id : INTEGER</text><line style="stroke:#A80036;stroke-width:1.0;" x1="1018" x2="1168" y1="337.3047" y2="337.3047"/><text fill="#000000" font-family="sans-serif" font-size="11" lengthAdjust="spacing" textLength="119" x="1023" y="351.5151">student_id : INTEGER</text><text fill="#000000" font-family="sans-serif" font-size="11" lengthAdjust="spacing" textLength="120" x="1023" y="364.3198">classes_id : INTEGER</text><text fill="#000000" font-family="sans-serif" font-size="11" lengthAdjust="spacing" textLength="140" x="1023" y="377.1245">examPaper_id : INTEGER</text><text fill="#000000" font-family="sans-serif" font-size="11" lengthAdjust="spacing" textLength="93" x="1023" y="389.9292">grade : INTEGER</text><text fill="#000000" font-family="sans-serif" font-size="11" lengthAdjust="spacing" textLength="119" x="1023" y="402.7339">student_id : INTEGER</text><text fill="#000000" font-family="sans-serif" font-size="11" lengthAdjust="spacing" textLength="140" x="1023" y="415.5386">examPaper_id : INTEGER</text><!--MD5=[d02dc4301b371901ff128750d9636229]
class AnswerRecord--><rect codeLine="135" fill="#FEFECE" filter="url(#f7h7i8ntbj764)" height="124.8281" id="AnswerRecord" style="stroke:#A80036;stroke-width:1.5;" width="148" x="9" y="7"/><ellipse cx="36.15" cy="23" fill="#ADD1B2" rx="11" ry="11" style="stroke:#A80036;stroke-width:1.0;"/><path d="M40.2594,29 L32.5406,29 L32.5406,16.6094 L40.2594,16.6094 L40.2594,18.7656 L34.9938,18.7656 L34.9938,21.4375 L39.7594,21.4375 L39.7594,23.5938 L34.9938,23.5938 L34.9938,26.8438 L40.2594,26.8438 L40.2594,29 Z " fill="#000000"/><text fill="#000000" font-family="sans-serif" font-size="12" lengthAdjust="spacing" textLength="89" x="52.85" y="27.1543">AnswerRecord</text><line style="stroke:#A80036;stroke-width:1.5;" x1="10" x2="156" y1="39" y2="39"/><text fill="#000000" font-family="sans-serif" font-size="11" lengthAdjust="spacing" textLength="70" x="15" y="53.2104">id : INTEGER</text><line style="stroke:#A80036;stroke-width:1.0;" x1="10" x2="156" y1="59.8047" y2="59.8047"/><text fill="#000000" font-family="sans-serif" font-size="11" lengthAdjust="spacing" textLength="136" x="15" y="74.0151">choice1Count : INTEGER</text><text fill="#000000" font-family="sans-serif" font-size="11" lengthAdjust="spacing" textLength="136" x="15" y="86.8198">choice2Count : INTEGER</text><text fill="#000000" font-family="sans-serif" font-size="11" lengthAdjust="spacing" textLength="136" x="15" y="99.6245">choice3Count : INTEGER</text><text fill="#000000" font-family="sans-serif" font-size="11" lengthAdjust="spacing" textLength="136" x="15" y="112.4292">choice4Count : INTEGER</text><text fill="#000000" font-family="sans-serif" font-size="11" lengthAdjust="spacing" textLength="0" x="19" y="125.2339"/><!--MD5=[1be95c84710ac8c74ee34eae5b43f28e]
link Role to Permission--><path codeLine="146" d="M167.16,216.5 C196.55,216.5 229.08,216.5 256.47,216.5 " fill="none" id="Role-Permission" style="stroke:#A80036;stroke-width:1.0;"/><line style="stroke:#A80036;stroke-width:1.0;" x1="256.79" x2="264.79" y1="216.5" y2="210.5"/><line style="stroke:#A80036;stroke-width:1.0;" x1="256.79" x2="264.79" y1="216.5" y2="222.5"/><line style="stroke:#A80036;stroke-width:1.0;" x1="256.79" x2="264.79" y1="216.5" y2="216.5"/><line style="stroke:#A80036;stroke-width:1.0;" x1="254.79" x2="254.79" y1="212.5" y2="220.5"/><line style="stroke:#A80036;stroke-width:1.0;" x1="163" x2="163" y1="220.5" y2="212.5"/><line style="stroke:#A80036;stroke-width:1.0;" x1="166" x2="166" y1="220.5" y2="212.5"/><line style="stroke:#A80036;stroke-width:1.0;" x1="167" x2="159" y1="216.5" y2="216.5"/><text fill="#000000" font-family="sans-serif" font-size="13" lengthAdjust="spacing" textLength="37" x="190" y="212.5669">角色-权限</text><text fill="#000000" font-family="sans-serif" font-size="13" lengthAdjust="spacing" textLength="13" x="167.1211" y="229.3009">m</text><text fill="#000000" font-family="sans-serif" font-size="13" lengthAdjust="spacing" textLength="8" x="248.8337" y="229.5558">n</text><!--MD5=[4246245663865254545223f8110ee93f]
link Role to UserInfo--><path codeLine="147" d="M83,274.12 C83,285.42 83,297.43 83,309.24 " fill="none" id="Role-UserInfo" style="stroke:#A80036;stroke-width:1.0;"/><line style="stroke:#A80036;stroke-width:1.0;" x1="83" x2="89" y1="309.35" y2="317.35"/><line style="stroke:#A80036;stroke-width:1.0;" x1="83" x2="77" y1="309.35" y2="317.35"/><line style="stroke:#A80036;stroke-width:1.0;" x1="83" x2="83" y1="309.35" y2="317.35"/><line style="stroke:#A80036;stroke-width:1.0;" x1="87" x2="79" y1="307.35" y2="307.35"/><line style="stroke:#A80036;stroke-width:1.0;" x1="79" x2="87" y1="270.04" y2="270.04"/><line style="stroke:#A80036;stroke-width:1.0;" x1="79" x2="87" y1="273.04" y2="273.04"/><line style="stroke:#A80036;stroke-width:1.0;" x1="83" x2="83" y1="274.04" y2="266.04"/><text fill="#000000" font-family="sans-serif" font-size="13" lengthAdjust="spacing" textLength="37" x="53" y="296.3169">角色-用户</text><text fill="#000000" font-family="sans-serif" font-size="13" lengthAdjust="spacing" textLength="8" x="74.4375" y="286.1221">1</text><text fill="#000000" font-family="sans-serif" font-size="13" lengthAdjust="spacing" textLength="8" x="74.5875" y="306.5381">n</text><!--MD5=[973c8700935a8cc7ae9fc54710405add]
link UserInfo to Teacher--><path codeLine="148" d="M156.65,375.06 C186.3,370.39 220.43,365.02 249.73,360.41 " fill="none" id="UserInfo-Teacher" style="stroke:#A80036;stroke-width:1.0;"/><line style="stroke:#A80036;stroke-width:1.0;" x1="249.9472" x2="256.9175" y1="360.3733" y2="353.2029"/><line style="stroke:#A80036;stroke-width:1.0;" x1="249.9472" x2="258.7825" y1="360.3733" y2="365.0571"/><line style="stroke:#A80036;stroke-width:1.0;" x1="249.9472" x2="257.85" y1="360.3733" y2="359.13"/><line style="stroke:#A80036;stroke-width:1.0;" x1="247.3499" x2="248.5932" y1="356.7327" y2="364.6355"/><line style="stroke:#A80036;stroke-width:1.0;" x1="153.103" x2="151.8598" y1="379.6698" y2="371.767"/><line style="stroke:#A80036;stroke-width:1.0;" x1="156.0666" x2="154.8233" y1="379.2035" y2="371.3007"/><line style="stroke:#A80036;stroke-width:1.0;" x1="156.4328" x2="148.53" y1="375.0967" y2="376.34"/><text fill="#000000" font-family="sans-serif" font-size="13" lengthAdjust="spacing" textLength="37" x="190" y="361.5669">用户-老师</text><text fill="#000000" font-family="sans-serif" font-size="13" lengthAdjust="spacing" textLength="8" x="156.5694" y="388.1282">1</text><text fill="#000000" font-family="sans-serif" font-size="13" lengthAdjust="spacing" textLength="8" x="242.2014" y="373.1613">1</text><!--MD5=[d2250ca3f2e8b86ce0c417dd6588c48d]
link UserInfo to Student--><path codeLine="149" d="M156.81,399.33 C236.28,412.99 367.37,434.52 481,448.5 C574.08,459.95 681.82,468.98 751.56,474.27 " fill="none" id="UserInfo-Student" style="stroke:#A80036;stroke-width:1.0;"/><line style="stroke:#A80036;stroke-width:1.0;" x1="751.9026" x2="760.3303" y1="474.2995" y2="468.9169"/><line style="stroke:#A80036;stroke-width:1.0;" x1="751.9026" x2="759.4297" y1="474.2995" y2="480.8831"/><line style="stroke:#A80036;stroke-width:1.0;" x1="751.9026" x2="759.88" y1="474.2995" y2="474.9"/><line style="stroke:#A80036;stroke-width:1.0;" x1="750.2084" x2="749.608" y1="470.1607" y2="478.1382"/><line style="stroke:#A80036;stroke-width:1.0;" x1="152.0636" x2="153.4205" y1="402.5705" y2="394.6864"/><line style="stroke:#A80036;stroke-width:1.0;" x1="155.0201" x2="156.377" y1="403.0793" y2="395.1952"/><line style="stroke:#A80036;stroke-width:1.0;" x1="156.6841" x2="148.8" y1="399.3069" y2="397.95"/><text fill="#000000" font-family="sans-serif" font-size="13" lengthAdjust="spacing" textLength="37" x="413" y="435.5669">用户-学生</text><text fill="#000000" font-family="sans-serif" font-size="13" lengthAdjust="spacing" textLength="8" x="156.4344" y="412.1169">1</text><text fill="#000000" font-family="sans-serif" font-size="13" lengthAdjust="spacing" textLength="8" x="744.2106" y="487.2901">1</text><!--MD5=[8b1a0b586a45d8c14215ad33453ecf71]
link Teacher to Classes--><path codeLine="150" d="M390.43,349.5 C416,349.5 445.38,349.5 472.66,349.5 " fill="none" id="Teacher-Classes" style="stroke:#A80036;stroke-width:1.0;"/><line style="stroke:#A80036;stroke-width:1.0;" x1="472.67" x2="480.67" y1="349.5" y2="343.5"/><line style="stroke:#A80036;stroke-width:1.0;" x1="472.67" x2="480.67" y1="349.5" y2="355.5"/><line style="stroke:#A80036;stroke-width:1.0;" x1="472.67" x2="480.67" y1="349.5" y2="349.5"/><line style="stroke:#A80036;stroke-width:1.0;" x1="470.67" x2="470.67" y1="345.5" y2="353.5"/><line style="stroke:#A80036;stroke-width:1.0;" x1="386.26" x2="386.26" y1="353.5" y2="345.5"/><line style="stroke:#A80036;stroke-width:1.0;" x1="389.26" x2="389.26" y1="353.5" y2="345.5"/><line style="stroke:#A80036;stroke-width:1.0;" x1="390.26" x2="382.26" y1="349.5" y2="349.5"/><text fill="#000000" font-family="sans-serif" font-size="13" lengthAdjust="spacing" textLength="37" x="413" y="345.5669">老师-班级</text><text fill="#000000" font-family="sans-serif" font-size="13" lengthAdjust="spacing" textLength="8" x="389.9213" y="362.4178">1</text><text fill="#000000" font-family="sans-serif" font-size="13" lengthAdjust="spacing" textLength="8" x="464.9932" y="362.2067">n</text><!--MD5=[b3c612307ec07aadd5822a0d6767db61]
link Classes to Student--><path codeLine="151" d="M658.64,395.67 C689.45,411.2 723.37,428.29 752.5,442.97 " fill="none" id="Classes-Student" style="stroke:#A80036;stroke-width:1.0;"/><line style="stroke:#A80036;stroke-width:1.0;" x1="752.656" x2="762.5004" y1="443.0494" y2="441.292"/><line style="stroke:#A80036;stroke-width:1.0;" x1="752.656" x2="757.0996" y1="443.0494" y2="452.008"/><line style="stroke:#A80036;stroke-width:1.0;" x1="752.656" x2="759.8" y1="443.0494" y2="446.65"/><line style="stroke:#A80036;stroke-width:1.0;" x1="752.6703" x2="749.0698" y1="438.5773" y2="445.7213"/><line style="stroke:#A80036;stroke-width:1.0;" x1="658.264" x2="648.4196" y1="395.4906" y2="397.248"/><line style="stroke:#A80036;stroke-width:1.0;" x1="658.264" x2="653.8204" y1="395.4906" y2="386.532"/><line style="stroke:#A80036;stroke-width:1.0;" x1="658.264" x2="651.12" y1="395.4906" y2="391.89"/><line style="stroke:#A80036;stroke-width:1.0;" x1="658.2497" x2="661.8502" y1="399.9627" y2="392.8187"/><text fill="#000000" font-family="sans-serif" font-size="13" lengthAdjust="spacing" textLength="37" x="682" y="407.5669">班级-学生</text><text fill="#000000" font-family="sans-serif" font-size="13" lengthAdjust="spacing" textLength="13" x="658.9936" y="408.2396">m</text><text fill="#000000" font-family="sans-serif" font-size="13" lengthAdjust="spacing" textLength="8" x="744.1219" y="455.9502">n</text><!--MD5=[1e516b4057bc98173b7edf7f71e5a70e]
link Student to StudentGrade--><path codeLine="152" d="M899.8,444.88 C933.74,428.75 974.28,409.47 1009.36,392.79 " fill="none" id="Student-StudentGrade" style="stroke:#A80036;stroke-width:1.0;"/><line style="stroke:#A80036;stroke-width:1.0;" x1="1009.5374" x2="1014.18" y1="392.72" y2="383.863"/><line style="stroke:#A80036;stroke-width:1.0;" x1="1009.5374" x2="1019.34" y1="392.72" y2="394.697"/><line style="stroke:#A80036;stroke-width:1.0;" x1="1009.5374" x2="1016.76" y1="392.72" y2="389.28"/><line style="stroke:#A80036;stroke-width:1.0;" x1="1006.0117" x2="1009.4517" y1="389.9687" y2="397.1913"/><line style="stroke:#A80036;stroke-width:1.0;" x1="899.3982" x2="894.7413" y1="445.0916" y2="453.9411"/><line style="stroke:#A80036;stroke-width:1.0;" x1="899.3982" x2="889.5987" y1="445.0916" y2="443.0989"/><line style="stroke:#A80036;stroke-width:1.0;" x1="899.3982" x2="892.17" y1="445.0916" y2="448.52"/><line style="stroke:#A80036;stroke-width:1.0;" x1="902.9194" x2="899.491" y1="447.8486" y2="440.6205"/><text fill="#000000" font-family="sans-serif" font-size="13" lengthAdjust="spacing" textLength="53" x="933" y="401.5669">学生-试卷分数</text><text fill="#000000" font-family="sans-serif" font-size="13" lengthAdjust="spacing" textLength="8" x="899.8448" y="458.0248">n</text><text fill="#000000" font-family="sans-serif" font-size="13" lengthAdjust="spacing" textLength="8" x="1001.1121" y="405.4958">1</text><!--MD5=[1e5f6346e4fce597a019d98296c71fa5]
link Classes to StudentGrade--><path codeLine="153" d="M659.18,350.2 C757.93,350.95 913.28,352.14 1008.53,352.86 " fill="none" id="Classes-StudentGrade" style="stroke:#A80036;stroke-width:1.0;"/><line style="stroke:#A80036;stroke-width:1.0;" x1="1008.7102" x2="1016.7529" y1="352.8729" y2="346.9302"/><line style="stroke:#A80036;stroke-width:1.0;" x1="1008.7102" x2="1016.6671" y1="352.8729" y2="358.9298"/><line style="stroke:#A80036;stroke-width:1.0;" x1="1008.7102" x2="1016.71" y1="352.8729" y2="352.93"/><line style="stroke:#A80036;stroke-width:1.0;" x1="1006.7388" x2="1006.6817" y1="348.8587" y2="356.8585"/><line style="stroke:#A80036;stroke-width:1.0;" x1="659.0598" x2="651.0171" y1="350.1971" y2="356.1398"/><line style="stroke:#A80036;stroke-width:1.0;" x1="659.0598" x2="651.1029" y1="350.1971" y2="344.1402"/><line style="stroke:#A80036;stroke-width:1.0;" x1="659.0598" x2="651.06" y1="350.1971" y2="350.14"/><line style="stroke:#A80036;stroke-width:1.0;" x1="661.0312" x2="661.0883" y1="354.2113" y2="346.2115"/><text fill="#000000" font-family="sans-serif" font-size="13" lengthAdjust="spacing" textLength="53" x="799.5" y="347.5669">班级-试卷分数</text><text fill="#000000" font-family="sans-serif" font-size="13" lengthAdjust="spacing" textLength="8" x="658.9919" y="362.927">n</text><text fill="#000000" font-family="sans-serif" font-size="13" lengthAdjust="spacing" textLength="8" x="1001.0574" y="365.6812">1</text><!--MD5=[ff1eb11e0a82f88181fd5e154f814b5e]
link ExamPaper to StudentGrade--><path codeLine="154" d="M902.1,266.79 C935.42,282.01 974.76,299.97 1008.96,315.58 " fill="none" id="ExamPaper-StudentGrade" style="stroke:#A80036;stroke-width:1.0;"/><line style="stroke:#A80036;stroke-width:1.0;" x1="1009.3434" x2="1019.1133" y1="315.7556" y2="313.6226"/><line style="stroke:#A80036;stroke-width:1.0;" x1="1009.3434" x2="1014.1267" y1="315.7556" y2="324.5374"/><line style="stroke:#A80036;stroke-width:1.0;" x1="1009.3434" x2="1016.62" y1="315.7556" y2="319.08"/><line style="stroke:#A80036;stroke-width:1.0;" x1="1009.1865" x2="1005.8621" y1="311.2862" y2="318.5628"/><line style="stroke:#A80036;stroke-width:1.0;" x1="901.8366" x2="892.0667" y1="266.6744" y2="268.8074"/><line style="stroke:#A80036;stroke-width:1.0;" x1="901.8366" x2="897.0533" y1="266.6744" y2="257.8926"/><line style="stroke:#A80036;stroke-width:1.0;" x1="901.8366" x2="894.56" y1="266.6744" y2="263.35"/><line style="stroke:#A80036;stroke-width:1.0;" x1="901.9935" x2="905.3179" y1="271.1438" y2="263.8672"/><text fill="#000000" font-family="sans-serif" font-size="13" lengthAdjust="spacing" textLength="53" x="933" y="278.5669">试卷-试卷分数</text><text fill="#000000" font-family="sans-serif" font-size="13" lengthAdjust="spacing" textLength="8" x="902.4962" y="279.6388">n</text><text fill="#000000" font-family="sans-serif" font-size="13" lengthAdjust="spacing" textLength="8" x="1000.9588" y="328.6049">1</text><!--MD5=[69c12b88fce068bf4d3498ad8f31ef7b]
link Teacher to Subject--><path codeLine="155" d="M383.21,301.31 C416.75,275.34 458.28,243.16 493.18,216.13 " fill="none" id="Teacher-Subject" style="stroke:#A80036;stroke-width:1.0;"/><line style="stroke:#A80036;stroke-width:1.0;" x1="493.2944" x2="495.9467" y1="216.0377" y2="206.3958"/><line style="stroke:#A80036;stroke-width:1.0;" x1="493.2944" x2="503.2933" y1="216.0377" y2="215.8842"/><line style="stroke:#A80036;stroke-width:1.0;" x1="493.2944" x2="499.62" y1="216.0377" y2="211.14"/><line style="stroke:#A80036;stroke-width:1.0;" x1="489.2642" x2="494.1619" y1="214.0993" y2="220.4249"/><line style="stroke:#A80036;stroke-width:1.0;" x1="382.9956" x2="380.3433" y1="301.4823" y2="311.1242"/><line style="stroke:#A80036;stroke-width:1.0;" x1="382.9956" x2="372.9967" y1="301.4823" y2="301.6358"/><line style="stroke:#A80036;stroke-width:1.0;" x1="382.9956" x2="376.67" y1="301.4823" y2="306.38"/><line style="stroke:#A80036;stroke-width:1.0;" x1="387.0258" x2="382.1281" y1="303.4207" y2="297.0951"/><text fill="#000000" font-family="sans-serif" font-size="13" lengthAdjust="spacing" textLength="37" x="413" y="245.5669">老师-学科</text><text fill="#000000" font-family="sans-serif" font-size="13" lengthAdjust="spacing" textLength="13" x="371.6658" y="295.3569">m</text><text fill="#000000" font-family="sans-serif" font-size="13" lengthAdjust="spacing" textLength="8" x="483.9222" y="229.5719">n</text><!--MD5=[dece23ce6fd9b89797fb1bc4ba8331e8]
link Subject to Chapter--><path codeLine="156" d="M639.79,135.67 C671.62,124.82 709.13,112.02 742.04,100.8 " fill="none" id="Subject-Chapter" style="stroke:#A80036;stroke-width:1.0;"/><line style="stroke:#A80036;stroke-width:1.0;" x1="742.2893" x2="747.9209" y1="100.7155" y2="92.452"/><line style="stroke:#A80036;stroke-width:1.0;" x1="742.2893" x2="751.7991" y1="100.7155" y2="103.808"/><line style="stroke:#A80036;stroke-width:1.0;" x1="742.2893" x2="749.86" y1="100.7155" y2="98.13"/><line style="stroke:#A80036;stroke-width:1.0;" x1="739.1039" x2="741.6894" y1="97.5765" y2="105.1472"/><line style="stroke:#A80036;stroke-width:1.0;" x1="637.1781" x2="634.5926" y1="140.7826" y2="133.2119"/><line style="stroke:#A80036;stroke-width:1.0;" x1="640.0171" x2="637.4316" y1="139.8131" y2="132.2424"/><line style="stroke:#A80036;stroke-width:1.0;" x1="639.6707" x2="632.1" y1="135.7045" y2="138.29"/><text fill="#000000" font-family="sans-serif" font-size="13" lengthAdjust="spacing" textLength="37" x="682" y="105.5669">学科-章节</text><text fill="#000000" font-family="sans-serif" font-size="13" lengthAdjust="spacing" textLength="8" x="640.2053" y="148.6624">1</text><text fill="#000000" font-family="sans-serif" font-size="13" lengthAdjust="spacing" textLength="8" x="733.9712" y="113.4635">n</text><!--MD5=[1fe1e01d6325e4c40cdec558fe28e27c]
link Subject to Classes--><path codeLine="157" d="M566,223.96 C566,235.75 566,248.27 566,260.66 " fill="none" id="Subject-Classes" style="stroke:#A80036;stroke-width:1.0;"/><line style="stroke:#A80036;stroke-width:1.0;" x1="570" x2="562" y1="263.98" y2="263.98"/><line style="stroke:#A80036;stroke-width:1.0;" x1="570" x2="562" y1="260.98" y2="260.98"/><line style="stroke:#A80036;stroke-width:1.0;" x1="566" x2="566" y1="259.98" y2="267.98"/><line style="stroke:#A80036;stroke-width:1.0;" x1="562" x2="570" y1="220.72" y2="220.72"/><line style="stroke:#A80036;stroke-width:1.0;" x1="562" x2="570" y1="223.72" y2="223.72"/><line style="stroke:#A80036;stroke-width:1.0;" x1="566" x2="566" y1="224.72" y2="216.72"/><text fill="#000000" font-family="sans-serif" font-size="13" lengthAdjust="spacing" textLength="37" x="536" y="246.8169">学科-班级</text><text fill="#000000" font-family="sans-serif" font-size="13" lengthAdjust="spacing" textLength="8" x="557.5125" y="236.5594">1</text><text fill="#000000" font-family="sans-serif" font-size="13" lengthAdjust="spacing" textLength="8" x="557.6313" y="256.8353">1</text><!--MD5=[7bcfdeceb9726096969e6e2f970ba2c6]
link Chapter to Question--><path codeLine="158" d="M909.88,98.46 C941.34,108.31 977.17,119.53 1008.67,129.4 " fill="none" id="Chapter-Question" style="stroke:#A80036;stroke-width:1.0;"/><line style="stroke:#A80036;stroke-width:1.0;" x1="1008.9447" x2="1018.3709" y1="129.4922" y2="126.1535"/><line style="stroke:#A80036;stroke-width:1.0;" x1="1008.9447" x2="1014.7891" y1="129.4922" y2="137.6065"/><line style="stroke:#A80036;stroke-width:1.0;" x1="1008.9447" x2="1016.58" y1="129.4922" y2="131.88"/><line style="stroke:#A80036;stroke-width:1.0;" x1="1008.2298" x2="1005.8419" y1="125.0775" y2="132.7129"/><line style="stroke:#A80036;stroke-width:1.0;" x1="904.8564" x2="907.2402" y1="101.0702" y2="93.4336"/><line style="stroke:#A80036;stroke-width:1.0;" x1="907.7201" x2="910.1039" y1="101.9641" y2="94.3275"/><line style="stroke:#A80036;stroke-width:1.0;" x1="909.8666" x2="902.23" y1="98.4438" y2="96.06"/><text fill="#000000" font-family="sans-serif" font-size="13" lengthAdjust="spacing" textLength="37" x="941" y="103.5669">章节-题目</text><text fill="#000000" font-family="sans-serif" font-size="13" lengthAdjust="spacing" textLength="8" x="909.8769" y="111.0925">1</text><text fill="#000000" font-family="sans-serif" font-size="13" lengthAdjust="spacing" textLength="8" x="1000.915" y="142.425">n</text><!--MD5=[c97a97dafbf9b4fa8e4b5e2105a9881a]
link Question to MutipleChoice--><path codeLine="159" d="M1176.14,131.17 C1206.12,122.3 1239.77,112.33 1268.77,103.74 " fill="none" id="Question-MutipleChoice" style="stroke:#A80036;stroke-width:1.0;"/><line style="stroke:#A80036;stroke-width:1.0;" x1="1270.6798" x2="1272.9486" y1="98.9986" y2="106.6702"/><line style="stroke:#A80036;stroke-width:1.0;" x1="1267.803" x2="1270.0718" y1="99.8494" y2="107.521"/><line style="stroke:#A80036;stroke-width:1.0;" x1="1267.9785" x2="1275.65" y1="103.9688" y2="101.7"/><line style="stroke:#A80036;stroke-width:1.0;" x1="1174.2754" x2="1171.9916" y1="135.8916" y2="128.2246"/><line style="stroke:#A80036;stroke-width:1.0;" x1="1177.1506" x2="1174.8668" y1="135.0352" y2="127.3681"/><line style="stroke:#A80036;stroke-width:1.0;" x1="1176.9671" x2="1169.3" y1="130.9162" y2="133.2"/><text fill="#000000" font-family="sans-serif" font-size="13" lengthAdjust="spacing" textLength="45" x="1200" y="108.5669">问题-选择题</text><text fill="#000000" font-family="sans-serif" font-size="13" lengthAdjust="spacing" textLength="8" x="1176.9536" y="143.8708">1</text><text fill="#000000" font-family="sans-serif" font-size="13" lengthAdjust="spacing" textLength="8" x="1260.0102" y="116.7146">1</text><!--MD5=[9f6ce5f5c1934856c48c99f68d0c73ed]
link Question to FillInTheBlanks--><path codeLine="160" d="M1176.14,180.16 C1206.12,189.16 1239.77,199.26 1268.77,207.97 " fill="none" id="Question-FillInTheBlanks" style="stroke:#A80036;stroke-width:1.0;"/><line style="stroke:#A80036;stroke-width:1.0;" x1="1272.9584" x2="1270.6746" y1="205.0546" y2="212.7216"/><line style="stroke:#A80036;stroke-width:1.0;" x1="1270.0832" x2="1267.7994" y1="204.1981" y2="211.8652"/><line style="stroke:#A80036;stroke-width:1.0;" x1="1267.9829" x2="1275.65" y1="207.7462" y2="210.03"/><line style="stroke:#A80036;stroke-width:1.0;" x1="1171.979" x2="1174.2823" y1="183.0823" y2="175.421"/><line style="stroke:#A80036;stroke-width:1.0;" x1="1174.852" x2="1177.1552" y1="183.946" y2="176.2847"/><line style="stroke:#A80036;stroke-width:1.0;" x1="1176.9613" x2="1169.3" y1="180.4033" y2="178.1"/><text fill="#000000" font-family="sans-serif" font-size="13" lengthAdjust="spacing" textLength="45" x="1200" y="184.5669">问题-填空题</text><text fill="#000000" font-family="sans-serif" font-size="13" lengthAdjust="spacing" textLength="8" x="1176.9536" y="193.0503">1</text><text fill="#000000" font-family="sans-serif" font-size="13" lengthAdjust="spacing" textLength="8" x="1260.0102" y="220.7723">1</text><!--MD5=[d637e79f979b673320b4af08efb39b93]
link ExamPaper to Question--><path codeLine="161" d="M902.55,210.55 C935.65,200.93 974.6,189.61 1008.56,179.75 " fill="none" id="ExamPaper-Question" style="stroke:#A80036;stroke-width:1.0;"/><line style="stroke:#A80036;stroke-width:1.0;" x1="1008.9376" x2="1014.9462" y1="179.6318" y2="171.6382"/><line style="stroke:#A80036;stroke-width:1.0;" x1="1008.9376" x2="1018.2938" y1="179.6318" y2="183.1618"/><line style="stroke:#A80036;stroke-width:1.0;" x1="1008.9376" x2="1016.62" y1="179.6318" y2="177.4"/><line style="stroke:#A80036;stroke-width:1.0;" x1="1005.9011" x2="1008.1329" y1="176.3485" y2="184.0309"/><line style="stroke:#A80036;stroke-width:1.0;" x1="902.2435" x2="896.2309" y1="210.6421" y2="218.6326"/><line style="stroke:#A80036;stroke-width:1.0;" x1="902.2435" x2="892.8891" y1="210.6421" y2="207.1074"/><line style="stroke:#A80036;stroke-width:1.0;" x1="902.2435" x2="894.56" y1="210.6421" y2="212.87"/><line style="stroke:#A80036;stroke-width:1.0;" x1="905.2784" x2="903.0504" y1="213.9268" y2="206.2433"/><text fill="#000000" font-family="sans-serif" font-size="13" lengthAdjust="spacing" textLength="37" x="941" y="183.5669">试卷-题目</text><text fill="#000000" font-family="sans-serif" font-size="13" lengthAdjust="spacing" textLength="13" x="902.3006" y="223.7118">m</text><text fill="#000000" font-family="sans-serif" font-size="13" lengthAdjust="spacing" textLength="8" x="1000.9588" y="192.2836">n</text><!--MD5=[51cc0463543ae9ecbc6a30e698fa362e]
@startuml Models
left to right direction
entity Subject{
    id : INTEGER
    ..
    name : STRING
    teacher_id : INTEGER
    classes_id : INTEGER
    chapter_id : INTEGER
}


entity Chapter{
    id : INTEGER
    ..
    name : STRING
    subject_id : INTEGER
    examPaper_id : INTEGER
    question_id : INTEGER
}


entity ExamPaper{
    id : INTEGER
    - -
    name : STRING
    tag : STRING
    chapter_id : INTEGER
    question_id : INTEGER
    grade_id : INTEGER
    classes_id : INTEGER
}


entity Question{
    id : INTEGER
    ..
    questionText : STRING
    difficulty : FLOAT
    type : STRING
    examPaper_id : INTEGER
    chapter_id : INTEGER
}

entity MutipleChoice{
    id : INTEGER
    ..
    choice1 : STRING
    choice2 : STRING
    choice3 : STRING
    choice4 : STRING
    answer : STRING
    questionId : INTEGER
}

entity FillInTheBlanks{
    id : INTEGER
    ..
    answer : STRING
    questionId : INTEGER
}


entity Role{
    id : INTEGER
    ..
    name : STRING
    user_id : INTEGER
    permission_id : INTEGER
}


entity Permission{
    id : INTEGER
    ..
    name : STRING
    role_id : INTEGER
}


entity UserInfo{
    id : INTEGER
    ..
    username : STRING
    password : STRING
    role_id : INTEGER
    teacher_id : INTEGER
    student_id : INTEGER

}

entity Teacher{
    id : INTEGER
    ..
    username : STRING
    password : STRING
}


entity Classes{
    id : INTEGER
    ..
    classes_id : INTEGER
    terms : STRING
    studentCount : INTEGER
    subject_id : INTEGER
    teacher_id : INTEGER
    student_grade_id : INTEGER
    student_id : INTEGER
    examPaper_id : INTEGER
}


entity Student{
    id : INTEGER
    ..
    student_id : INTEGER
    user_id : INTEGER
    grade : INTEGER
    classes_id : INTEGER
}


entity StudentGrade{
    id : INTEGER
    - -
    student_id : INTEGER
    classes_id : INTEGER
    examPaper_id : INTEGER
    grade : INTEGER
    student_id : INTEGER
    examPaper_id : INTEGER
}


entity AnswerRecord{
    id : INTEGER
    - -
    choice1Count : INTEGER
    choice2Count : INTEGER
    choice3Count : INTEGER
    choice4Count : INTEGER

}


Role "m" ||- -|{ "n" Permission: 角色-权限
Role "1" ||-|{ "n" UserInfo: 角色-用户
UserInfo "1" ||- -|{ "1" Teacher: 用户-老师
UserInfo "1" ||-|{ "1" Student: 用户-学生
Teacher "1" ||-|{ "n" Classes: 老师-班级
Classes "m" }|- -|{ "n" Student: 班级-学生
Student "n" }|- -|{ "1" StudentGrade: 学生-试卷分数
Classes "n" }|- -|{ "1" StudentGrade: 班级-试卷分数
ExamPaper "n" }|- -|{ "1" StudentGrade: 试卷-试卷分数
Teacher "m" }|- -|{ "n" Subject: 老师-学科
Subject "1" ||- -|{ "n" Chapter: 学科-章节
Subject "1" ||-|| "1" Classes: 学科-班级
Chapter "1" ||- -|{ "n" Question: 章节-题目
Question "1" ||- -|| "1" MutipleChoice: 问题-选择题
Question "1" ||- -|| "1" FillInTheBlanks: 问题-填空题
ExamPaper "m" }|- -|{ "n" Question: 试卷-题目
@enduml

PlantUML version 1.2022.0(Wed Jan 12 00:16:42 CST 2022)
(GPL source distribution)
Java Runtime: OpenJDK Runtime Environment
JVM: OpenJDK 64-Bit Server VM
Default Encoding: UTF-8
Language: en
Country: null
--></g></svg>