<?xml version="1.0" encoding="UTF-8" standalone="no"?><svg xmlns="http://www.w3.org/2000/svg" xmlns:xlink="http://www.w3.org/1999/xlink" contentScriptType="application/ecmascript" contentStyleType="text/css" height="383px" preserveAspectRatio="none" style="width:1140px;height:383px;background:#FFFFFF;" version="1.1" viewBox="0 0 1140 383" width="1140px" zoomAndPan="magnify"><defs><filter height="300%" id="fcr81boelyqku" width="300%" x="-1" y="-1"><feGaussianBlur result="blurOut" stdDeviation="2.0"/><feColorMatrix in="blurOut" result="blurOut2" type="matrix" values="0 0 0 0 0 0 0 0 0 0 0 0 0 0 0 0 0 0 .4 0"/><feOffset dx="4.0" dy="4.0" in="blurOut2" result="blurOut3"/><feBlend in="SourceGraphic" in2="blurOut3" mode="normal"/></filter></defs><g><!--MD5=[d0da0a299942266ebd64acf2b2e95fa4]
class Subject--><rect codeLine="2" fill="#FEFECE" filter="url(#fcr81boelyqku)" height="93.0688" id="Subject" style="stroke:#A80036;stroke-width:1.5;" width="114" x="239.5" y="45"/><ellipse cx="272.95" cy="61" fill="#ADD1B2" rx="11" ry="11" style="stroke:#A80036;stroke-width:1.0;"/><path d="M269.4813,55.7813 L269.4813,54.8438 L276.45,54.8438 L277.3094,57.5313 L276.5281,57.8281 Q275.9188,56.6719 275.3719,56.2344 Q274.8406,55.7813 274.2,55.7813 L272.3406,55.7813 Q272.1688,55.7813 272.0906,55.8438 Q272.0125,55.9063 272.0125,56.0469 L272.0125,59.8906 L273.6688,59.8906 Q274.2156,59.8906 274.4344,59.6406 Q274.6688,59.3906 274.6688,58.8281 L274.6688,58.1719 L275.5906,58.1719 L275.5906,62.6094 L274.6688,62.6094 L274.6688,62.0781 Q274.6688,61.4531 274.4344,61.1406 Q274.2,60.8281 273.6688,60.8281 L272.0125,60.8281 L272.0125,65.5313 Q272.0125,65.6719 272.0906,65.7344 Q272.1688,65.7969 272.3406,65.7969 L274.0594,65.7969 Q274.9656,65.7969 275.5906,65.2969 Q276.2313,64.7813 276.7,63.4063 L277.5125,63.7188 L276.6531,66.7344 L269.4188,66.7344 L269.4188,65.7969 L270.075,65.7969 Q270.3094,65.7969 270.3563,65.75 Q270.4188,65.6875 270.4188,65.5313 L270.4188,56.0469 Q270.4188,55.8906 270.3563,55.8438 Q270.3094,55.7813 270.075,55.7813 L269.4813,55.7813 Z " fill="#000000"/><text fill="#000000" font-family="sans-serif" font-size="12" lengthAdjust="spacing" textLength="41" x="291.05" y="66.5576">Subject</text><line style="stroke:#A80036;stroke-width:1.5;" x1="240.5" x2="352.5" y1="77" y2="77"/><text fill="#000000" font-family="sans-serif" font-size="11" lengthAdjust="spacing" textLength="59" x="245.5" y="93.606">id : INTEGER</text><line style="stroke:#A80036;stroke-width:1.0;stroke-dasharray:1.0,2.0;" x1="240.5" x2="352.5" y1="100.0229" y2="100.0229"/><text fill="#000000" font-family="sans-serif" font-size="11" lengthAdjust="spacing" textLength="72" x="245.5" y="116.6289">name : STRING</text><text fill="#000000" font-family="sans-serif" font-size="11" lengthAdjust="spacing" textLength="102" x="245.5" y="131.6519">teacher_id : INTEGER</text><!--MD5=[e6dd12c3d7efc01d6b31087039459188]
class Chapter--><rect codeLine="10" fill="#FEFECE" filter="url(#fcr81boelyqku)" height="93.0688" id="Chapter" style="stroke:#A80036;stroke-width:1.5;" width="112" x="507.5" y="44"/><ellipse cx="538.7" cy="60" fill="#ADD1B2" rx="11" ry="11" style="stroke:#A80036;stroke-width:1.0;"/><path d="M535.2313,54.7813 L535.2313,53.8438 L542.2,53.8438 L543.0594,56.5313 L542.2781,56.8281 Q541.6688,55.6719 541.1219,55.2344 Q540.5906,54.7813 539.95,54.7813 L538.0906,54.7813 Q537.9188,54.7813 537.8406,54.8438 Q537.7625,54.9063 537.7625,55.0469 L537.7625,58.8906 L539.4188,58.8906 Q539.9656,58.8906 540.1844,58.6406 Q540.4188,58.3906 540.4188,57.8281 L540.4188,57.1719 L541.3406,57.1719 L541.3406,61.6094 L540.4188,61.6094 L540.4188,61.0781 Q540.4188,60.4531 540.1844,60.1406 Q539.95,59.8281 539.4188,59.8281 L537.7625,59.8281 L537.7625,64.5313 Q537.7625,64.6719 537.8406,64.7344 Q537.9188,64.7969 538.0906,64.7969 L539.8094,64.7969 Q540.7156,64.7969 541.3406,64.2969 Q541.9813,63.7813 542.45,62.4063 L543.2625,62.7188 L542.4031,65.7344 L535.1688,65.7344 L535.1688,64.7969 L535.825,64.7969 Q536.0594,64.7969 536.1063,64.75 Q536.1688,64.6875 536.1688,64.5313 L536.1688,55.0469 Q536.1688,54.8906 536.1063,54.8438 Q536.0594,54.7813 535.825,54.7813 L535.2313,54.7813 Z " fill="#000000"/><text fill="#000000" font-family="sans-serif" font-size="12" lengthAdjust="spacing" textLength="44" x="556.3" y="65.5576">Chapter</text><line style="stroke:#A80036;stroke-width:1.5;" x1="508.5" x2="618.5" y1="76" y2="76"/><text fill="#000000" font-family="sans-serif" font-size="11" lengthAdjust="spacing" textLength="59" x="513.5" y="92.606">id : INTEGER</text><line style="stroke:#A80036;stroke-width:1.0;stroke-dasharray:1.0,2.0;" x1="508.5" x2="618.5" y1="99.0229" y2="99.0229"/><text fill="#000000" font-family="sans-serif" font-size="11" lengthAdjust="spacing" textLength="72" x="513.5" y="115.6289">name : STRING</text><text fill="#000000" font-family="sans-serif" font-size="11" lengthAdjust="spacing" textLength="100" x="513.5" y="130.6519">subject_id : INTEGER</text><!--MD5=[831d89f7ed19e8d9dcbc545e8c99870c]
class ExamPaper--><rect codeLine="18" fill="#FEFECE" filter="url(#fcr81boelyqku)" height="63.0229" id="ExamPaper" style="stroke:#A80036;stroke-width:1.5;" width="96" x="248.5" y="173"/><ellipse cx="263.5" cy="189" fill="#ADD1B2" rx="11" ry="11" style="stroke:#A80036;stroke-width:1.0;"/><path d="M260.0313,183.7813 L260.0313,182.8438 L267,182.8438 L267.8594,185.5313 L267.0781,185.8281 Q266.4688,184.6719 265.9219,184.2344 Q265.3906,183.7813 264.75,183.7813 L262.8906,183.7813 Q262.7188,183.7813 262.6406,183.8438 Q262.5625,183.9063 262.5625,184.0469 L262.5625,187.8906 L264.2188,187.8906 Q264.7656,187.8906 264.9844,187.6406 Q265.2188,187.3906 265.2188,186.8281 L265.2188,186.1719 L266.1406,186.1719 L266.1406,190.6094 L265.2188,190.6094 L265.2188,190.0781 Q265.2188,189.4531 264.9844,189.1406 Q264.75,188.8281 264.2188,188.8281 L262.5625,188.8281 L262.5625,193.5313 Q262.5625,193.6719 262.6406,193.7344 Q262.7188,193.7969 262.8906,193.7969 L264.6094,193.7969 Q265.5156,193.7969 266.1406,193.2969 Q266.7813,192.7813 267.25,191.4063 L268.0625,191.7188 L267.2031,194.7344 L259.9688,194.7344 L259.9688,193.7969 L260.625,193.7969 Q260.8594,193.7969 260.9063,193.75 Q260.9688,193.6875 260.9688,193.5313 L260.9688,184.0469 Q260.9688,183.8906 260.9063,183.8438 Q260.8594,183.7813 260.625,183.7813 L260.0313,183.7813 Z " fill="#000000"/><text fill="#000000" font-family="sans-serif" font-size="12" lengthAdjust="spacing" textLength="64" x="277.5" y="194.5576">ExamPaper</text><line style="stroke:#A80036;stroke-width:1.5;" x1="249.5" x2="343.5" y1="205" y2="205"/><text fill="#000000" font-family="sans-serif" font-size="11" lengthAdjust="spacing" textLength="59" x="254.5" y="221.606">id : INTEGER</text><line style="stroke:#A80036;stroke-width:1.5;" x1="249.5" x2="343.5" y1="228.0229" y2="228.0229"/><!--MD5=[fc7123defb831ecdd44b2d9bcef6cceb]
class Question--><rect codeLine="23" fill="#FEFECE" filter="url(#fcr81boelyqku)" height="168.1836" id="Question" style="stroke:#A80036;stroke-width:1.5;" width="131" x="747" y="78.5"/><ellipse cx="784.05" cy="94.5" fill="#ADD1B2" rx="11" ry="11" style="stroke:#A80036;stroke-width:1.0;"/><path d="M780.5813,89.2813 L780.5813,88.3438 L787.55,88.3438 L788.4094,91.0313 L787.6281,91.3281 Q787.0188,90.1719 786.4719,89.7344 Q785.9406,89.2813 785.3,89.2813 L783.4406,89.2813 Q783.2688,89.2813 783.1906,89.3438 Q783.1125,89.4063 783.1125,89.5469 L783.1125,93.3906 L784.7688,93.3906 Q785.3156,93.3906 785.5344,93.1406 Q785.7688,92.8906 785.7688,92.3281 L785.7688,91.6719 L786.6906,91.6719 L786.6906,96.1094 L785.7688,96.1094 L785.7688,95.5781 Q785.7688,94.9531 785.5344,94.6406 Q785.3,94.3281 784.7688,94.3281 L783.1125,94.3281 L783.1125,99.0313 Q783.1125,99.1719 783.1906,99.2344 Q783.2688,99.2969 783.4406,99.2969 L785.1594,99.2969 Q786.0656,99.2969 786.6906,98.7969 Q787.3313,98.2813 787.8,96.9063 L788.6125,97.2188 L787.7531,100.2344 L780.5188,100.2344 L780.5188,99.2969 L781.175,99.2969 Q781.4094,99.2969 781.4563,99.25 Q781.5188,99.1875 781.5188,99.0313 L781.5188,89.5469 Q781.5188,89.3906 781.4563,89.3438 Q781.4094,89.2813 781.175,89.2813 L780.5813,89.2813 Z " fill="#000000"/><text fill="#000000" font-family="sans-serif" font-size="12" lengthAdjust="spacing" textLength="50" x="802.95" y="100.0576">Question</text><line style="stroke:#A80036;stroke-width:1.5;" x1="748" x2="877" y1="110.5" y2="110.5"/><text fill="#000000" font-family="sans-serif" font-size="11" lengthAdjust="spacing" textLength="59" x="753" y="127.106">id : INTEGER</text><line style="stroke:#A80036;stroke-width:1.0;stroke-dasharray:1.0,2.0;" x1="748" x2="877" y1="133.5229" y2="133.5229"/><text fill="#000000" font-family="sans-serif" font-size="11" lengthAdjust="spacing" textLength="108" x="753" y="150.1289">questionText : STRING</text><text fill="#000000" font-family="sans-serif" font-size="11" lengthAdjust="spacing" textLength="84" x="753" y="165.1519">difficulty : FLOAT</text><text fill="#000000" font-family="sans-serif" font-size="11" lengthAdjust="spacing" textLength="98" x="753" y="180.1748">addTime : DATETIME</text><text fill="#000000" font-family="sans-serif" font-size="11" lengthAdjust="spacing" textLength="98" x="753" y="195.1978">addPerson : STRING</text><text fill="#000000" font-family="sans-serif" font-size="11" lengthAdjust="spacing" textLength="67" x="753" y="210.2207">type : STRING</text><text fill="#000000" font-family="sans-serif" font-size="11" lengthAdjust="spacing" textLength="119" x="753" y="225.2437">examPaper_id : INTEGER</text><text fill="#000000" font-family="sans-serif" font-size="11" lengthAdjust="spacing" textLength="102" x="753" y="240.2666">chapter_id : INTEGER</text><!--MD5=[17395793c30896c425127a7a9c9c9792]
class MutipleChoice--><rect codeLine="35" fill="#FEFECE" filter="url(#fcr81boelyqku)" height="153.1606" id="MutipleChoice" style="stroke:#A80036;stroke-width:1.5;" width="112" x="1011.5" y="7"/><ellipse cx="1027.4" cy="23" fill="#ADD1B2" rx="11" ry="11" style="stroke:#A80036;stroke-width:1.0;"/><path d="M1023.9313,17.7813 L1023.9313,16.8438 L1030.9,16.8438 L1031.7594,19.5313 L1030.9781,19.8281 Q1030.3688,18.6719 1029.8219,18.2344 Q1029.2906,17.7813 1028.65,17.7813 L1026.7906,17.7813 Q1026.6188,17.7813 1026.5406,17.8438 Q1026.4625,17.9063 1026.4625,18.0469 L1026.4625,21.8906 L1028.1188,21.8906 Q1028.6656,21.8906 1028.8844,21.6406 Q1029.1188,21.3906 1029.1188,20.8281 L1029.1188,20.1719 L1030.0406,20.1719 L1030.0406,24.6094 L1029.1188,24.6094 L1029.1188,24.0781 Q1029.1188,23.4531 1028.8844,23.1406 Q1028.65,22.8281 1028.1188,22.8281 L1026.4625,22.8281 L1026.4625,27.5313 Q1026.4625,27.6719 1026.5406,27.7344 Q1026.6188,27.7969 1026.7906,27.7969 L1028.5094,27.7969 Q1029.4156,27.7969 1030.0406,27.2969 Q1030.6813,26.7813 1031.15,25.4063 L1031.9625,25.7188 L1031.1031,28.7344 L1023.8688,28.7344 L1023.8688,27.7969 L1024.525,27.7969 Q1024.7594,27.7969 1024.8063,27.75 Q1024.8688,27.6875 1024.8688,27.5313 L1024.8688,18.0469 Q1024.8688,17.8906 1024.8063,17.8438 Q1024.7594,17.7813 1024.525,17.7813 L1023.9313,17.7813 Z " fill="#000000"/><text fill="#000000" font-family="sans-serif" font-size="12" lengthAdjust="spacing" textLength="78" x="1041.6" y="28.5576">MutipleChoice</text><line style="stroke:#A80036;stroke-width:1.5;" x1="1012.5" x2="1122.5" y1="39" y2="39"/><text fill="#000000" font-family="sans-serif" font-size="11" lengthAdjust="spacing" textLength="59" x="1017.5" y="55.606">id : INTEGER</text><line style="stroke:#A80036;stroke-width:1.0;stroke-dasharray:1.0,2.0;" x1="1012.5" x2="1122.5" y1="62.0229" y2="62.0229"/><text fill="#000000" font-family="sans-serif" font-size="11" lengthAdjust="spacing" textLength="84" x="1017.5" y="78.6289">choice1 : STRING</text><text fill="#000000" font-family="sans-serif" font-size="11" lengthAdjust="spacing" textLength="84" x="1017.5" y="93.6519">choice2 : STRING</text><text fill="#000000" font-family="sans-serif" font-size="11" lengthAdjust="spacing" textLength="84" x="1017.5" y="108.6748">choice3 : STRING</text><text fill="#000000" font-family="sans-serif" font-size="11" lengthAdjust="spacing" textLength="84" x="1017.5" y="123.6978">choice4 : STRING</text><text fill="#000000" font-family="sans-serif" font-size="11" lengthAdjust="spacing" textLength="84" x="1017.5" y="138.7207">answer : STRING</text><text fill="#000000" font-family="sans-serif" font-size="11" lengthAdjust="spacing" textLength="100" x="1017.5" y="153.7437">questionId : INTEGER</text><!--MD5=[c087533bf00b8bbb24ce4fccf8f15d5d]
class FillInTheBlanks--><rect codeLine="46" fill="#FEFECE" filter="url(#fcr81boelyqku)" height="93.0688" id="FillInTheBlanks" style="stroke:#A80036;stroke-width:1.5;" width="117" x="1009" y="195"/><ellipse cx="1024" cy="211" fill="#ADD1B2" rx="11" ry="11" style="stroke:#A80036;stroke-width:1.0;"/><path d="M1020.5313,205.7813 L1020.5313,204.8438 L1027.5,204.8438 L1028.3594,207.5313 L1027.5781,207.8281 Q1026.9688,206.6719 1026.4219,206.2344 Q1025.8906,205.7813 1025.25,205.7813 L1023.3906,205.7813 Q1023.2188,205.7813 1023.1406,205.8438 Q1023.0625,205.9063 1023.0625,206.0469 L1023.0625,209.8906 L1024.7188,209.8906 Q1025.2656,209.8906 1025.4844,209.6406 Q1025.7188,209.3906 1025.7188,208.8281 L1025.7188,208.1719 L1026.6406,208.1719 L1026.6406,212.6094 L1025.7188,212.6094 L1025.7188,212.0781 Q1025.7188,211.4531 1025.4844,211.1406 Q1025.25,210.8281 1024.7188,210.8281 L1023.0625,210.8281 L1023.0625,215.5313 Q1023.0625,215.6719 1023.1406,215.7344 Q1023.2188,215.7969 1023.3906,215.7969 L1025.1094,215.7969 Q1026.0156,215.7969 1026.6406,215.2969 Q1027.2813,214.7813 1027.75,213.4063 L1028.5625,213.7188 L1027.7031,216.7344 L1020.4688,216.7344 L1020.4688,215.7969 L1021.125,215.7969 Q1021.3594,215.7969 1021.4063,215.75 Q1021.4688,215.6875 1021.4688,215.5313 L1021.4688,206.0469 Q1021.4688,205.8906 1021.4063,205.8438 Q1021.3594,205.7813 1021.125,205.7813 L1020.5313,205.7813 Z " fill="#000000"/><text fill="#000000" font-family="sans-serif" font-size="12" lengthAdjust="spacing" textLength="85" x="1038" y="216.5576">FillInTheBlanks</text><line style="stroke:#A80036;stroke-width:1.5;" x1="1010" x2="1125" y1="227" y2="227"/><text fill="#000000" font-family="sans-serif" font-size="11" lengthAdjust="spacing" textLength="59" x="1015" y="243.606">id : INTEGER</text><line style="stroke:#A80036;stroke-width:1.0;stroke-dasharray:1.0,2.0;" x1="1010" x2="1125" y1="250.0229" y2="250.0229"/><text fill="#000000" font-family="sans-serif" font-size="11" lengthAdjust="spacing" textLength="84" x="1015" y="266.6289">answer : STRING</text><text fill="#000000" font-family="sans-serif" font-size="11" lengthAdjust="spacing" textLength="100" x="1015" y="281.6519">questionId : INTEGER</text><!--MD5=[61a83f88cb8b7d3a80bc8c481f3736bf]
class Teacher--><rect codeLine="54" fill="#FEFECE" filter="url(#fcr81boelyqku)" height="78.0459" id="Teacher" style="stroke:#A80036;stroke-width:1.5;" width="84" x="22" y="64.5"/><ellipse cx="40.15" cy="80.5" fill="#ADD1B2" rx="11" ry="11" style="stroke:#A80036;stroke-width:1.0;"/><path d="M36.6813,75.2813 L36.6813,74.3438 L43.65,74.3438 L44.5094,77.0313 L43.7281,77.3281 Q43.1188,76.1719 42.5719,75.7344 Q42.0406,75.2813 41.4,75.2813 L39.5406,75.2813 Q39.3688,75.2813 39.2906,75.3438 Q39.2125,75.4063 39.2125,75.5469 L39.2125,79.3906 L40.8688,79.3906 Q41.4156,79.3906 41.6344,79.1406 Q41.8688,78.8906 41.8688,78.3281 L41.8688,77.6719 L42.7906,77.6719 L42.7906,82.1094 L41.8688,82.1094 L41.8688,81.5781 Q41.8688,80.9531 41.6344,80.6406 Q41.4,80.3281 40.8688,80.3281 L39.2125,80.3281 L39.2125,85.0313 Q39.2125,85.1719 39.2906,85.2344 Q39.3688,85.2969 39.5406,85.2969 L41.2594,85.2969 Q42.1656,85.2969 42.7906,84.7969 Q43.4313,84.2813 43.9,82.9063 L44.7125,83.2188 L43.8531,86.2344 L36.6188,86.2344 L36.6188,85.2969 L37.275,85.2969 Q37.5094,85.2969 37.5563,85.25 Q37.6188,85.1875 37.6188,85.0313 L37.6188,75.5469 Q37.6188,75.3906 37.5563,75.3438 Q37.5094,75.2813 37.275,75.2813 L36.6813,75.2813 Z " fill="#000000"/><text fill="#000000" font-family="sans-serif" font-size="12" lengthAdjust="spacing" textLength="45" x="54.85" y="86.0576">Teacher</text><line style="stroke:#A80036;stroke-width:1.5;" x1="23" x2="105" y1="96.5" y2="96.5"/><text fill="#000000" font-family="sans-serif" font-size="11" lengthAdjust="spacing" textLength="59" x="28" y="113.106">id : INTEGER</text><line style="stroke:#A80036;stroke-width:1.0;stroke-dasharray:1.0,2.0;" x1="23" x2="105" y1="119.5229" y2="119.5229"/><text fill="#000000" font-family="sans-serif" font-size="11" lengthAdjust="spacing" textLength="72" x="28" y="136.1289">name : STRING</text><!--MD5=[4481f1f876aa056696029f7568a5ef18]
class Classes--><rect codeLine="61" fill="#FEFECE" filter="url(#fcr81boelyqku)" height="78.0459" id="Classes" style="stroke:#A80036;stroke-width:1.5;" width="114" x="7" y="218.5"/><ellipse cx="37.75" cy="234.5" fill="#ADD1B2" rx="11" ry="11" style="stroke:#A80036;stroke-width:1.0;"/><path d="M34.2813,229.2813 L34.2813,228.3438 L41.25,228.3438 L42.1094,231.0313 L41.3281,231.3281 Q40.7188,230.1719 40.1719,229.7344 Q39.6406,229.2813 39,229.2813 L37.1406,229.2813 Q36.9688,229.2813 36.8906,229.3438 Q36.8125,229.4063 36.8125,229.5469 L36.8125,233.3906 L38.4688,233.3906 Q39.0156,233.3906 39.2344,233.1406 Q39.4688,232.8906 39.4688,232.3281 L39.4688,231.6719 L40.3906,231.6719 L40.3906,236.1094 L39.4688,236.1094 L39.4688,235.5781 Q39.4688,234.9531 39.2344,234.6406 Q39,234.3281 38.4688,234.3281 L36.8125,234.3281 L36.8125,239.0313 Q36.8125,239.1719 36.8906,239.2344 Q36.9688,239.2969 37.1406,239.2969 L38.8594,239.2969 Q39.7656,239.2969 40.3906,238.7969 Q41.0313,238.2813 41.5,236.9063 L42.3125,237.2188 L41.4531,240.2344 L34.2188,240.2344 L34.2188,239.2969 L34.875,239.2969 Q35.1094,239.2969 35.1563,239.25 Q35.2188,239.1875 35.2188,239.0313 L35.2188,229.5469 Q35.2188,229.3906 35.1563,229.3438 Q35.1094,229.2813 34.875,229.2813 L34.2813,229.2813 Z " fill="#000000"/><text fill="#000000" font-family="sans-serif" font-size="12" lengthAdjust="spacing" textLength="47" x="55.25" y="240.0576">Classes</text><line style="stroke:#A80036;stroke-width:1.5;" x1="8" x2="120" y1="250.5" y2="250.5"/><text fill="#000000" font-family="sans-serif" font-size="11" lengthAdjust="spacing" textLength="59" x="13" y="267.106">id : INTEGER</text><line style="stroke:#A80036;stroke-width:1.0;stroke-dasharray:1.0,2.0;" x1="8" x2="120" y1="273.5229" y2="273.5229"/><text fill="#000000" font-family="sans-serif" font-size="11" lengthAdjust="spacing" textLength="102" x="13" y="290.1289">teacher_id : INTEGER</text><!--MD5=[d6181cb537bdc20c0a3007a98a56832d]
class Student--><rect codeLine="68" fill="#FEFECE" filter="url(#fcr81boelyqku)" height="78.0459" id="Student" style="stroke:#A80036;stroke-width:1.5;" width="115" x="239" y="272.5"/><ellipse cx="272.45" cy="288.5" fill="#ADD1B2" rx="11" ry="11" style="stroke:#A80036;stroke-width:1.0;"/><path d="M268.9813,283.2813 L268.9813,282.3438 L275.95,282.3438 L276.8094,285.0313 L276.0281,285.3281 Q275.4188,284.1719 274.8719,283.7344 Q274.3406,283.2813 273.7,283.2813 L271.8406,283.2813 Q271.6688,283.2813 271.5906,283.3438 Q271.5125,283.4063 271.5125,283.5469 L271.5125,287.3906 L273.1688,287.3906 Q273.7156,287.3906 273.9344,287.1406 Q274.1688,286.8906 274.1688,286.3281 L274.1688,285.6719 L275.0906,285.6719 L275.0906,290.1094 L274.1688,290.1094 L274.1688,289.5781 Q274.1688,288.9531 273.9344,288.6406 Q273.7,288.3281 273.1688,288.3281 L271.5125,288.3281 L271.5125,293.0313 Q271.5125,293.1719 271.5906,293.2344 Q271.6688,293.2969 271.8406,293.2969 L273.5594,293.2969 Q274.4656,293.2969 275.0906,292.7969 Q275.7313,292.2813 276.2,290.9063 L277.0125,291.2188 L276.1531,294.2344 L268.9188,294.2344 L268.9188,293.2969 L269.575,293.2969 Q269.8094,293.2969 269.8563,293.25 Q269.9188,293.1875 269.9188,293.0313 L269.9188,283.5469 Q269.9188,283.3906 269.8563,283.3438 Q269.8094,283.2813 269.575,283.2813 L268.9813,283.2813 Z " fill="#000000"/><text fill="#000000" font-family="sans-serif" font-size="12" lengthAdjust="spacing" textLength="42" x="290.55" y="294.0576">Student</text><line style="stroke:#A80036;stroke-width:1.5;" x1="240" x2="353" y1="304.5" y2="304.5"/><text fill="#000000" font-family="sans-serif" font-size="11" lengthAdjust="spacing" textLength="59" x="245" y="321.106">id : INTEGER</text><line style="stroke:#A80036;stroke-width:1.0;stroke-dasharray:1.0,2.0;" x1="240" x2="353" y1="327.5229" y2="327.5229"/><text fill="#000000" font-family="sans-serif" font-size="11" lengthAdjust="spacing" textLength="103" x="245" y="344.1289">classes_id : INTEGER</text><!--MD5=[107af66394bf1ebaa045812c9c475148]
class Score--><rect codeLine="75" fill="#FEFECE" filter="url(#fcr81boelyqku)" height="108.0918" id="Score" style="stroke:#A80036;stroke-width:1.5;" width="131" x="498" y="261.5"/><ellipse cx="543.25" cy="277.5" fill="#ADD1B2" rx="11" ry="11" style="stroke:#A80036;stroke-width:1.0;"/><path d="M539.7813,272.2813 L539.7813,271.3438 L546.75,271.3438 L547.6094,274.0313 L546.8281,274.3281 Q546.2188,273.1719 545.6719,272.7344 Q545.1406,272.2813 544.5,272.2813 L542.6406,272.2813 Q542.4688,272.2813 542.3906,272.3438 Q542.3125,272.4063 542.3125,272.5469 L542.3125,276.3906 L543.9688,276.3906 Q544.5156,276.3906 544.7344,276.1406 Q544.9688,275.8906 544.9688,275.3281 L544.9688,274.6719 L545.8906,274.6719 L545.8906,279.1094 L544.9688,279.1094 L544.9688,278.5781 Q544.9688,277.9531 544.7344,277.6406 Q544.5,277.3281 543.9688,277.3281 L542.3125,277.3281 L542.3125,282.0313 Q542.3125,282.1719 542.3906,282.2344 Q542.4688,282.2969 542.6406,282.2969 L544.3594,282.2969 Q545.2656,282.2969 545.8906,281.7969 Q546.5313,281.2813 547,279.9063 L547.8125,280.2188 L546.9531,283.2344 L539.7188,283.2344 L539.7188,282.2969 L540.375,282.2969 Q540.6094,282.2969 540.6563,282.25 Q540.7188,282.1875 540.7188,282.0313 L540.7188,272.5469 Q540.7188,272.3906 540.6563,272.3438 Q540.6094,272.2813 540.375,272.2813 L539.7813,272.2813 Z " fill="#000000"/><text fill="#000000" font-family="sans-serif" font-size="12" lengthAdjust="spacing" textLength="32" x="563.75" y="283.0576">Score</text><line style="stroke:#A80036;stroke-width:1.5;" x1="499" x2="628" y1="293.5" y2="293.5"/><text fill="#000000" font-family="sans-serif" font-size="11" lengthAdjust="spacing" textLength="59" x="504" y="310.106">id : INTEGER</text><text fill="#000000" font-family="sans-serif" font-size="11" lengthAdjust="spacing" textLength="85" x="504" y="325.1289">score : INTEGERs</text><text fill="#000000" font-family="sans-serif" font-size="11" lengthAdjust="spacing" textLength="101" x="504" y="340.1519">student_id : INTEGER</text><text fill="#000000" font-family="sans-serif" font-size="11" lengthAdjust="spacing" textLength="119" x="504" y="355.1748">examPaper_id : INTEGER</text><line style="stroke:#A80036;stroke-width:1.5;" x1="499" x2="628" y1="361.5918" y2="361.5918"/><!--MD5=[8b1a0b586a45d8c14215ad33453ecf71]
link Teacher to Classes--><path codeLine="83" d="M64,150.85 C64,169.68 64,191.31 64,210.15 " fill="none" id="Teacher-Classes" style="stroke:#A80036;stroke-width:1.0;"/><line style="stroke:#A80036;stroke-width:1.0;" x1="64" x2="70" y1="210.24" y2="218.24"/><line style="stroke:#A80036;stroke-width:1.0;" x1="64" x2="58" y1="210.24" y2="218.24"/><line style="stroke:#A80036;stroke-width:1.0;" x1="64" x2="64" y1="210.24" y2="218.24"/><line style="stroke:#A80036;stroke-width:1.0;" x1="68" x2="60" y1="208.24" y2="208.24"/><line style="stroke:#A80036;stroke-width:1.0;" x1="60" x2="68" y1="146.69" y2="146.69"/><line style="stroke:#A80036;stroke-width:1.0;" x1="60" x2="68" y1="149.69" y2="149.69"/><line style="stroke:#A80036;stroke-width:1.0;" x1="64" x2="64" y1="150.69" y2="142.69"/><text fill="#000000" font-family="sans-serif" font-size="13" lengthAdjust="spacing" textLength="56" x="23.5" y="186.8979">老师-班级</text><text fill="#000000" font-family="sans-serif" font-size="13" lengthAdjust="spacing" textLength="7" x="56.4203" y="165.5453">1</text><text fill="#000000" font-family="sans-serif" font-size="13" lengthAdjust="spacing" textLength="7" x="56.3766" y="207.6938">n</text><!--MD5=[b3c612307ec07aadd5822a0d6767db61]
link Classes to Student--><path codeLine="84" d="M129.21,272.54 C160.91,279.97 199.06,288.91 230.83,296.35 " fill="none" id="Classes-Student" style="stroke:#A80036;stroke-width:1.0;"/><line style="stroke:#A80036;stroke-width:1.0;" x1="230.9719" x2="240.1318" y1="296.3809" y2="292.3689"/><line style="stroke:#A80036;stroke-width:1.0;" x1="230.9719" x2="237.3882" y1="296.3809" y2="304.0511"/><line style="stroke:#A80036;stroke-width:1.0;" x1="230.9719" x2="238.76" y1="296.3809" y2="298.21"/><line style="stroke:#A80036;stroke-width:1.0;" x1="229.9395" x2="228.1103" y1="292.0295" y2="299.8176"/><line style="stroke:#A80036;stroke-width:1.0;" x1="128.8781" x2="119.7182" y1="272.4691" y2="276.4811"/><line style="stroke:#A80036;stroke-width:1.0;" x1="128.8781" x2="122.4618" y1="272.4691" y2="264.7989"/><line style="stroke:#A80036;stroke-width:1.0;" x1="128.8781" x2="121.09" y1="272.4691" y2="270.64"/><line style="stroke:#A80036;stroke-width:1.0;" x1="129.9105" x2="131.7397" y1="276.8205" y2="269.0324"/><text fill="#000000" font-family="sans-serif" font-size="13" lengthAdjust="spacing" textLength="56" x="152" y="274.3979">班级-学生</text><text fill="#000000" font-family="sans-serif" font-size="13" lengthAdjust="spacing" textLength="11" x="129.1093" y="288.356">m</text><text fill="#000000" font-family="sans-serif" font-size="13" lengthAdjust="spacing" textLength="7" x="223.9136" y="312.5396">n</text><!--MD5=[e83fd46d8fc04f8e2d152b8e00833111]
link Student to Score--><path codeLine="85" d="M362.09,312.47 C400.62,313.06 449.64,313.8 489.56,314.4 " fill="none" id="Student-Score" style="stroke:#A80036;stroke-width:1.0;"/><line style="stroke:#A80036;stroke-width:1.0;" x1="489.6708" x2="497.7557" y1="314.4057" y2="308.5206"/><line style="stroke:#A80036;stroke-width:1.0;" x1="489.6708" x2="497.5843" y1="314.4057" y2="320.5194"/><line style="stroke:#A80036;stroke-width:1.0;" x1="489.6708" x2="497.67" y1="314.4057" y2="314.52"/><line style="stroke:#A80036;stroke-width:1.0;" x1="487.7282" x2="487.6139" y1="310.3776" y2="318.3767"/><line style="stroke:#A80036;stroke-width:1.0;" x1="362.019" x2="353.9236" y1="312.4786" y2="318.3492"/><line style="stroke:#A80036;stroke-width:1.0;" x1="362.019" x2="354.1164" y1="312.4786" y2="306.3508"/><line style="stroke:#A80036;stroke-width:1.0;" x1="362.019" x2="354.02" y1="312.4786" y2="312.35"/><line style="stroke:#A80036;stroke-width:1.0;" x1="363.9544" x2="364.083" y1="316.5102" y2="308.5112"/><text fill="#000000" font-family="sans-serif" font-size="13" lengthAdjust="spacing" textLength="82" x="385" y="309.3979">学生-试卷分数</text><text fill="#000000" font-family="sans-serif" font-size="13" lengthAdjust="spacing" textLength="11" x="362.0944" y="328.4913">m</text><text fill="#000000" font-family="sans-serif" font-size="13" lengthAdjust="spacing" textLength="7" x="483.087" y="330.2767">n</text><!--MD5=[69c12b88fce068bf4d3498ad8f31ef7b]
link Teacher to Subject--><path codeLine="86" d="M114.3,100.93 C148.45,99.16 194.25,96.77 231.26,94.84 " fill="none" id="Teacher-Subject" style="stroke:#A80036;stroke-width:1.0;"/><line style="stroke:#A80036;stroke-width:1.0;" x1="231.5007" x2="239.1791" y1="94.8345" y2="88.4281"/><line style="stroke:#A80036;stroke-width:1.0;" x1="231.5007" x2="239.8009" y1="94.8345" y2="100.4119"/><line style="stroke:#A80036;stroke-width:1.0;" x1="231.5007" x2="239.49" y1="94.8345" y2="94.42"/><line style="stroke:#A80036;stroke-width:1.0;" x1="229.2962" x2="229.7107" y1="90.9435" y2="98.9327"/><line style="stroke:#A80036;stroke-width:1.0;" x1="114.1993" x2="106.5209" y1="100.9355" y2="107.3419"/><line style="stroke:#A80036;stroke-width:1.0;" x1="114.1993" x2="105.8991" y1="100.9355" y2="95.3581"/><line style="stroke:#A80036;stroke-width:1.0;" x1="114.1993" x2="106.21" y1="100.9355" y2="101.35"/><line style="stroke:#A80036;stroke-width:1.0;" x1="116.4038" x2="115.9893" y1="104.8265" y2="96.8373"/><text fill="#000000" font-family="sans-serif" font-size="13" lengthAdjust="spacing" textLength="56" x="152" y="93.3979">老师-学科</text><text fill="#000000" font-family="sans-serif" font-size="13" lengthAdjust="spacing" textLength="11" x="114.112" y="117.3583">m</text><text fill="#000000" font-family="sans-serif" font-size="13" lengthAdjust="spacing" textLength="7" x="224.359" y="110.8986">n</text><!--MD5=[dece23ce6fd9b89797fb1bc4ba8331e8]
link Subject to Chapter--><path codeLine="87" d="M361.84,91.26 C403.55,91.1 457.65,90.9 499.16,90.74 " fill="none" id="Subject-Chapter" style="stroke:#A80036;stroke-width:1.0;"/><line style="stroke:#A80036;stroke-width:1.0;" x1="499.2901" x2="507.2686" y1="90.7386" y2="84.71"/><line style="stroke:#A80036;stroke-width:1.0;" x1="499.2901" x2="507.3114" y1="90.7386" y2="96.71"/><line style="stroke:#A80036;stroke-width:1.0;" x1="499.2901" x2="507.29" y1="90.7386" y2="90.71"/><line style="stroke:#A80036;stroke-width:1.0;" x1="497.2758" x2="497.3043" y1="86.7457" y2="94.7457"/><line style="stroke:#A80036;stroke-width:1.0;" x1="357.7143" x2="357.6857" y1="95.2757" y2="87.2757"/><line style="stroke:#A80036;stroke-width:1.0;" x1="360.7142" x2="360.6857" y1="95.265" y2="87.265"/><line style="stroke:#A80036;stroke-width:1.0;" x1="361.6999" x2="353.7" y1="91.2614" y2="91.29"/><text fill="#000000" font-family="sans-serif" font-size="13" lengthAdjust="spacing" textLength="56" x="398" y="88.3979">学科-章节</text><text fill="#000000" font-family="sans-serif" font-size="13" lengthAdjust="spacing" textLength="7" x="361.4772" y="107.294">1</text><text fill="#000000" font-family="sans-serif" font-size="13" lengthAdjust="spacing" textLength="7" x="492.6397" y="106.7678">n</text><!--MD5=[7bcfdeceb9726096969e6e2f970ba2c6]
link Chapter to Question--><path codeLine="88" d="M627.75,108.94 C661.72,118.84 703.76,131.09 739.04,141.38 " fill="none" id="Chapter-Question" style="stroke:#A80036;stroke-width:1.0;"/><line style="stroke:#A80036;stroke-width:1.0;" x1="739.2503" x2="748.6108" y1="141.4389" y2="137.9202"/><line style="stroke:#A80036;stroke-width:1.0;" x1="739.2503" x2="745.2492" y1="141.4389" y2="149.4398"/><line style="stroke:#A80036;stroke-width:1.0;" x1="739.2503" x2="746.93" y1="141.4389" y2="143.68"/><line style="stroke:#A80036;stroke-width:1.0;" x1="738.4509" x2="736.2099" y1="137.0388" y2="144.7185"/><line style="stroke:#A80036;stroke-width:1.0;" x1="622.3393" x2="624.5804" y1="111.5304" y2="103.8507"/><line style="stroke:#A80036;stroke-width:1.0;" x1="625.2192" x2="627.4603" y1="112.3708" y2="104.6911"/><line style="stroke:#A80036;stroke-width:1.0;" x1="627.2997" x2="619.62" y1="108.8111" y2="106.57"/><text fill="#000000" font-family="sans-serif" font-size="13" lengthAdjust="spacing" textLength="56" x="660" y="117.3979">章节-题目</text><text fill="#000000" font-family="sans-serif" font-size="13" lengthAdjust="spacing" textLength="7" x="627.6314" y="124.8156">1</text><text fill="#000000" font-family="sans-serif" font-size="13" lengthAdjust="spacing" textLength="7" x="731.9438" y="157.4177">n</text><!--MD5=[c97a97dafbf9b4fa8e4b5e2105a9881a]
link Question to MutipleChoice--><path codeLine="89" d="M885.17,140.12 C922.68,128.41 968.17,114.2 1004.2,102.95 " fill="none" id="Question-MutipleChoice" style="stroke:#A80036;stroke-width:1.0;"/><line style="stroke:#A80036;stroke-width:1.0;" x1="1006.2603" x2="1008.6427" y1="98.1127" y2="105.7497"/><line style="stroke:#A80036;stroke-width:1.0;" x1="1003.3964" x2="1005.7789" y1="99.0062" y2="106.6432"/><line style="stroke:#A80036;stroke-width:1.0;" x1="1003.633" x2="1011.27" y1="103.1225" y2="100.74"/><line style="stroke:#A80036;stroke-width:1.0;" x1="883.3397" x2="880.9573" y1="144.8873" y2="137.2503"/><line style="stroke:#A80036;stroke-width:1.0;" x1="886.2036" x2="883.8211" y1="143.9938" y2="136.3568"/><line style="stroke:#A80036;stroke-width:1.0;" x1="885.967" x2="878.33" y1="139.8775" y2="142.26"/><text fill="#000000" font-family="sans-serif" font-size="13" lengthAdjust="spacing" textLength="69" x="909" y="108.3979">问题-选择题</text><text fill="#000000" font-family="sans-serif" font-size="13" lengthAdjust="spacing" textLength="7" x="885.913" y="155.9051">1</text><text fill="#000000" font-family="sans-serif" font-size="13" lengthAdjust="spacing" textLength="7" x="996.6171" y="118.9739">1</text><!--MD5=[9f6ce5f5c1934856c48c99f68d0c73ed]
link Question to FillInTheBlanks--><path codeLine="90" d="M885.03,184.83 C921.71,196.29 966.06,210.14 1001.73,221.28 " fill="none" id="Question-FillInTheBlanks" style="stroke:#A80036;stroke-width:1.0;"/><line style="stroke:#A80036;stroke-width:1.0;" x1="1006.1227" x2="1003.7403" y1="218.4603" y2="226.0973"/><line style="stroke:#A80036;stroke-width:1.0;" x1="1003.2589" x2="1000.8764" y1="217.5668" y2="225.2038"/><line style="stroke:#A80036;stroke-width:1.0;" x1="1001.113" x2="1008.75" y1="221.0875" y2="223.47"/><line style="stroke:#A80036;stroke-width:1.0;" x1="880.9573" x2="883.3397" y1="187.7497" y2="180.1127"/><line style="stroke:#A80036;stroke-width:1.0;" x1="883.8211" x2="886.2036" y1="188.6432" y2="181.0062"/><line style="stroke:#A80036;stroke-width:1.0;" x1="885.967" x2="878.33" y1="185.1225" y2="182.74"/><text fill="#000000" font-family="sans-serif" font-size="13" lengthAdjust="spacing" textLength="69" x="909" y="190.3979">问题-填空题</text><text fill="#000000" font-family="sans-serif" font-size="13" lengthAdjust="spacing" textLength="7" x="885.913" y="200.8126">1</text><text fill="#000000" font-family="sans-serif" font-size="13" lengthAdjust="spacing" textLength="7" x="994.1633" y="237.2483">1</text><!--MD5=[d637e79f979b673320b4af08efb39b93]
link ExamPaper to Question--><path codeLine="91" d="M353.05,199.96 C446.36,192.34 634.5,176.96 738.41,168.47 " fill="none" id="ExamPaper-Question" style="stroke:#A80036;stroke-width:1.0;"/><line style="stroke:#A80036;stroke-width:1.0;" x1="738.687" x2="746.167" y1="168.4573" y2="161.8203"/><line style="stroke:#A80036;stroke-width:1.0;" x1="738.687" x2="747.153" y1="168.4573" y2="173.7797"/><line style="stroke:#A80036;stroke-width:1.0;" x1="738.687" x2="746.66" y1="168.4573" y2="167.8"/><line style="stroke:#A80036;stroke-width:1.0;" x1="736.3652" x2="737.0224" y1="164.6351" y2="172.6081"/><line style="stroke:#A80036;stroke-width:1.0;" x1="352.903" x2="345.423" y1="199.9627" y2="206.5997"/><line style="stroke:#A80036;stroke-width:1.0;" x1="352.903" x2="344.437" y1="199.9627" y2="194.6403"/><line style="stroke:#A80036;stroke-width:1.0;" x1="352.903" x2="344.93" y1="199.9627" y2="200.62"/><line style="stroke:#A80036;stroke-width:1.0;" x1="355.2248" x2="354.5676" y1="203.7849" y2="195.8119"/><text fill="#000000" font-family="sans-serif" font-size="13" lengthAdjust="spacing" textLength="56" x="535.5" y="175.3979">试卷-题目</text><text fill="#000000" font-family="sans-serif" font-size="13" lengthAdjust="spacing" textLength="11" x="352.5139" y="216.2191">m</text><text fill="#000000" font-family="sans-serif" font-size="13" lengthAdjust="spacing" textLength="7" x="732.0759" y="184.2385">n</text><!--MD5=[0756e3970d6eb25e2c56c9321a24c32a]
link ExamPaper to Score--><path codeLine="92" d="M352.02,227.34 C392.06,244.11 446.86,267.06 490.5,285.34 " fill="none" id="ExamPaper-Score" style="stroke:#A80036;stroke-width:1.0;"/><line style="stroke:#A80036;stroke-width:1.0;" x1="490.5783" x2="500.273" y1="285.386" y2="282.9338"/><line style="stroke:#A80036;stroke-width:1.0;" x1="490.5783" x2="495.647" y1="285.386" y2="294.0062"/><line style="stroke:#A80036;stroke-width:1.0;" x1="490.5783" x2="497.96" y1="285.386" y2="288.47"/><line style="stroke:#A80036;stroke-width:1.0;" x1="490.2749" x2="487.1909" y1="280.9241" y2="288.3058"/><line style="stroke:#A80036;stroke-width:1.0;" x1="351.9517" x2="342.257" y1="227.304" y2="229.7562"/><line style="stroke:#A80036;stroke-width:1.0;" x1="351.9517" x2="346.883" y1="227.304" y2="218.6838"/><line style="stroke:#A80036;stroke-width:1.0;" x1="351.9517" x2="344.57" y1="227.304" y2="224.22"/><line style="stroke:#A80036;stroke-width:1.0;" x1="352.2551" x2="355.3391" y1="231.7659" y2="224.3842"/><text fill="#000000" font-family="sans-serif" font-size="13" lengthAdjust="spacing" textLength="56" x="398" y="240.3979">试卷-分数</text><text fill="#000000" font-family="sans-serif" font-size="13" lengthAdjust="spacing" textLength="11" x="352.4381" y="243.3165">m</text><text fill="#000000" font-family="sans-serif" font-size="13" lengthAdjust="spacing" textLength="7" x="482.9772" y="301.2637">n</text><!--MD5=[e1ed527000cbceec1850e07c6c9a78b3]
@startuml Models
left to right direction
entity Subject{
    id : INTEGER
    ..
    name : STRING
    teacher_id : INTEGER
}


entity Chapter{
    id : INTEGER
    ..
    name : STRING
    subject_id : INTEGER
}


entity ExamPaper{
    id : INTEGER
}


entity Question{
    id : INTEGER
    ..
    questionText : STRING
    difficulty : FLOAT
    addTime : DATETIME
    addPerson : STRING
    type : STRING
    examPaper_id : INTEGER
    chapter_id : INTEGER
}

entity MutipleChoice{
    id : INTEGER
    ..
    choice1 : STRING
    choice2 : STRING
    choice3 : STRING
    choice4 : STRING
    answer : STRING
    questionId : INTEGER
}

entity FillInTheBlanks{
    id : INTEGER
    ..
    answer : STRING
    questionId : INTEGER
}


entity Teacher{
    id : INTEGER
    ..
    name : STRING
}


entity Classes{
    id : INTEGER
    ..
    teacher_id : INTEGER
}


entity Student{
    id : INTEGER
    ..
    classes_id : INTEGER
}


entity Score{
    id : INTEGER
    score : INTEGERs
    student_id : INTEGER
    examPaper_id : INTEGER
}


Teacher "1" ||-|{ "n" Classes: 老师-班级
Classes "m" }|- -|{ "n" Student: 班级-学生
Student "m" }|- -|{ "n" Score: 学生-试卷分数
Teacher "m" }|- -|{ "n" Subject: 老师-学科
Subject "1" ||- -|{ "n" Chapter: 学科-章节
Chapter "1" ||- -|{ "n" Question: 章节-题目
Question "1" ||- -|| "1" MutipleChoice: 问题-选择题
Question "1" ||- -|| "1" FillInTheBlanks: 问题-填空题
ExamPaper "m" }|- -|{ "n" Question: 试卷-题目
ExamPaper "m" }|- -|{ "n" Score: 试卷-分数
@enduml

PlantUML version 1.2022.0(Wed Jan 12 00:16:42 CST 2022)
(GPL source distribution)
Java Runtime: OpenJDK Runtime Environment
JVM: OpenJDK 64-Bit Server VM
Default Encoding: GBK
Language: zh
Country: CN
--></g></svg>